<svg width="29" height="30" viewBox="0 0 29 30" fill="none" xmlns="http://www.w3.org/2000/svg">
<g clip-path="url(#clip0_1_231)">
<rect width="28.606" height="29.812" fill="white"/>
<path d="M27.227 15.292C27.1679 15.1719 27.1372 15.0398 27.1372 14.906C27.1372 14.7721 27.1679 14.6401 27.227 14.52L28.341 12.246C28.6399 11.6406 28.6905 10.9424 28.4818 10.3002C28.2731 9.65812 27.8217 9.12298 27.224 8.809L24.985 7.622C24.8671 7.56007 24.7649 7.47202 24.6862 7.36457C24.6075 7.25711 24.5544 7.1331 24.531 7.002L24.094 4.502C23.9795 3.83706 23.6099 3.24312 23.0639 2.84674C22.5179 2.45035 21.8387 2.28288 21.171 2.38L18.664 2.735C18.5315 2.75402 18.3965 2.74236 18.2692 2.70092C18.1419 2.65948 18.0259 2.58937 17.93 2.496L16.11 0.734995C15.6267 0.263563 14.9782 -0.000305176 14.303 -0.000305176C13.6278 -0.000305176 12.9794 0.263563 12.496 0.734995L10.676 2.495C10.5801 2.58837 10.4641 2.65848 10.3368 2.69992C10.2096 2.74136 10.0745 2.75302 9.94201 2.734L7.43501 2.379C6.76717 2.2819 6.08783 2.44951 5.54179 2.8461C4.99576 3.24269 4.62624 3.83688 4.51201 4.502L4.07401 7.002C4.05128 7.134 3.99853 7.25901 3.91981 7.36738C3.84109 7.47575 3.73851 7.56457 3.62001 7.627L1.38401 8.809C0.786277 9.12298 0.334916 9.65812 0.126233 10.3002C-0.0824514 10.9424 -0.0319331 11.6406 0.267008 12.246L1.37901 14.521C1.43812 14.6411 1.46886 14.7731 1.46886 14.907C1.46886 15.0408 1.43812 15.1729 1.37901 15.293L0.267008 17.568C-0.031007 18.1731 -0.081023 18.8706 0.127612 19.512C0.336248 20.1534 0.787049 20.688 1.38401 21.002L3.62001 22.189C3.73851 22.2514 3.84109 22.3402 3.91981 22.4486C3.99853 22.557 4.05128 22.682 4.07401 22.814L4.51101 25.308C4.61396 25.9099 4.92655 26.4559 5.39344 26.8494C5.86033 27.2429 6.45141 27.4585 7.06201 27.458C7.18646 27.458 7.31077 27.4494 7.43401 27.432L9.94101 27.077C10.0735 27.0579 10.2086 27.0695 10.3359 27.111C10.4631 27.1524 10.5792 27.2226 10.675 27.316L12.495 29.076C12.9784 29.5474 13.6268 29.8113 14.302 29.8113C14.9772 29.8113 15.6257 29.5474 16.109 29.076L17.929 27.316C18.0249 27.2227 18.141 27.1526 18.2682 27.1112C18.3955 27.0697 18.5305 27.0581 18.663 27.077L21.17 27.432C21.838 27.5291 22.5175 27.3613 23.0635 26.9645C23.6096 26.5677 23.979 25.9733 24.093 25.308L24.53 22.814C24.5527 22.682 24.6055 22.557 24.6842 22.4486C24.7629 22.3402 24.8655 22.2514 24.984 22.189L27.222 21.002C27.8196 20.6884 28.271 20.1537 28.48 19.512C28.6891 18.8704 28.6392 18.1724 28.341 17.567L27.227 15.292ZM26.416 19.484L24.18 20.672C23.8304 20.8566 23.5278 21.1191 23.2957 21.4392C23.0635 21.7592 22.908 22.1283 22.841 22.518L22.401 25.012C22.3624 25.2371 22.2374 25.4383 22.0527 25.5726C21.868 25.7069 21.6381 25.7637 21.412 25.731L18.905 25.376C18.5133 25.3192 18.1138 25.3532 17.7373 25.4755C17.3609 25.5977 17.0176 25.8049 16.734 26.081L14.914 27.841C14.7504 28.0005 14.531 28.0897 14.3025 28.0897C14.074 28.0897 13.8546 28.0005 13.691 27.841L11.871 26.081C11.3892 25.6121 10.7433 25.3498 10.071 25.35C9.94722 25.35 9.82358 25.3587 9.70101 25.376L7.19401 25.731C6.96796 25.7637 6.73806 25.7069 6.55331 25.5726C6.36857 25.4383 6.24358 25.2371 6.20501 25.012L5.76801 22.518C5.70074 22.128 5.54473 21.7588 5.31204 21.4387C5.07935 21.1186 4.7762 20.8563 4.42601 20.672L2.19001 19.485C1.9878 19.3787 1.83511 19.1976 1.76449 18.9804C1.69388 18.7631 1.71093 18.5269 1.81201 18.322L2.92401 16.047C3.09886 15.6921 3.1898 15.3017 3.1898 14.906C3.1898 14.5103 3.09886 14.1199 2.92401 13.765L1.81201 11.49C1.71093 11.2851 1.69388 11.0489 1.76449 10.8316C1.83511 10.6144 1.9878 10.4333 2.19001 10.327L4.42601 9.13999C4.77632 8.95561 5.07954 8.69314 5.31224 8.37288C5.54494 8.05262 5.70088 7.68314 5.76801 7.293L6.20501 4.802C6.24358 4.57687 6.36857 4.37571 6.55331 4.2414C6.73806 4.10709 6.96796 4.05025 7.19401 4.083L9.70101 4.438C10.0927 4.49474 10.4922 4.46067 10.8686 4.33843C11.2451 4.21619 11.5884 4.00904 11.872 3.733L13.692 1.973C13.8556 1.81351 14.075 1.72425 14.3035 1.72425C14.532 1.72425 14.7514 1.81351 14.915 1.973L16.735 3.733C17.0186 4.00904 17.3619 4.21619 17.7384 4.33843C18.1148 4.46067 18.5143 4.49474 18.906 4.438L21.411 4.082C21.6371 4.04925 21.867 4.10609 22.0517 4.2404C22.2364 4.37471 22.3614 4.57587 22.4 4.801L22.841 7.295C22.9083 7.68496 23.0643 8.05424 23.297 8.37432C23.5297 8.6944 23.8328 8.95671 24.183 9.141L26.419 10.328C26.6212 10.4343 26.7739 10.6154 26.8445 10.8326C26.9151 11.0499 26.8981 11.2861 26.797 11.491L25.685 13.766C25.5102 14.1209 25.4192 14.5113 25.4192 14.907C25.4192 15.3027 25.5102 15.6931 25.685 16.048L26.797 18.323C26.8975 18.5281 26.914 18.7644 26.8428 18.9815C26.7716 19.1985 26.6185 19.3782 26.416 19.484Z" fill="black"/>
<path d="M20.585 8.625C20.4237 8.46379 20.205 8.37323 19.977 8.37323C19.749 8.37323 19.5303 8.46379 19.369 8.625L8.02099 19.973C7.93861 20.0523 7.87288 20.1472 7.82762 20.2522C7.78235 20.3571 7.75846 20.4701 7.75736 20.5844C7.75627 20.6987 7.77798 20.8121 7.82122 20.918C7.86447 21.0238 7.92837 21.1199 8.00921 21.2008C8.09005 21.2816 8.1862 21.3455 8.29203 21.3888C8.39786 21.432 8.51125 21.4537 8.62557 21.4526C8.73989 21.4515 8.85285 21.4277 8.95783 21.3824C9.06282 21.3371 9.15772 21.2714 9.23699 21.189L20.585 9.841C20.7462 9.67973 20.8368 9.46103 20.8368 9.233C20.8368 9.00497 20.7462 8.78627 20.585 8.625Z" fill="black"/>
<path d="M10.864 7.16899C10.2406 7.16899 9.63119 7.35386 9.11284 7.7002C8.5945 8.04655 8.19051 8.53882 7.95194 9.11478C7.71337 9.69073 7.65095 10.3245 7.77257 10.9359C7.89419 11.5473 8.1944 12.109 8.63521 12.5498C9.07603 12.9906 9.63766 13.2908 10.2491 13.4124C10.8605 13.5341 11.4943 13.4716 12.0702 13.2331C12.6462 12.9945 13.1385 12.5905 13.4848 12.0721C13.8312 11.5538 14.016 10.9444 14.016 10.321C14.015 9.48535 13.6825 8.68425 13.0916 8.09336C12.5007 7.50248 11.6996 7.17005 10.864 7.16899ZM10.864 11.754C10.5806 11.754 10.3035 11.6699 10.0679 11.5125C9.83222 11.355 9.64855 11.1312 9.54009 10.8694C9.43163 10.6075 9.40325 10.3194 9.45855 10.0414C9.51384 9.76345 9.65032 9.50812 9.85073 9.30771C10.0511 9.1073 10.3065 8.97082 10.5844 8.91553C10.8624 8.86023 11.1505 8.88862 11.4124 8.99708C11.6742 9.10554 11.898 9.28921 12.0555 9.52486C12.213 9.76052 12.297 10.0376 12.297 10.321C12.2965 10.7008 12.1453 11.0649 11.8767 11.3333C11.608 11.6018 11.2438 11.7537 10.864 11.754Z" fill="black"/>
<path d="M17.741 16.339C17.1176 16.339 16.5082 16.5239 15.9899 16.8702C15.4715 17.2165 15.0675 17.7088 14.8289 18.2848C14.5904 18.8607 14.528 19.4945 14.6496 20.1059C14.7712 20.7173 15.0714 21.279 15.5122 21.7198C15.953 22.1606 16.5147 22.4608 17.1261 22.5824C17.7375 22.704 18.3713 22.6416 18.9472 22.4031C19.5232 22.1645 20.0155 21.7605 20.3618 21.2421C20.7082 20.7238 20.893 20.1144 20.893 19.491C20.892 18.6554 20.5595 17.8542 19.9687 17.2634C19.3778 16.6725 18.5767 16.34 17.741 16.339ZM17.741 20.924C17.4576 20.924 17.1805 20.8399 16.9449 20.6825C16.7092 20.525 16.5256 20.3012 16.4171 20.0394C16.3086 19.7775 16.2803 19.4894 16.3356 19.2114C16.3909 18.9334 16.5273 18.6781 16.7277 18.4777C16.9282 18.2773 17.1835 18.1408 17.4614 18.0855C17.7394 18.0302 18.0275 18.0586 18.2894 18.1671C18.5512 18.2755 18.7751 18.4592 18.9325 18.6949C19.09 18.9305 19.174 19.2076 19.174 19.491C19.1744 19.6795 19.1377 19.8663 19.0658 20.0406C18.994 20.2149 18.8886 20.3734 18.7555 20.5069C18.6224 20.6405 18.4643 20.7465 18.2902 20.8189C18.1162 20.8913 17.9296 20.9287 17.741 20.929V20.924Z" fill="black"/>
</g>
<defs>
<clipPath id="clip0_1_231">
<rect width="28.606" height="29.812" fill="white"/>
</clipPath>
</defs>
</svg>
