<svg width="29" height="20" viewBox="0 0 29 20" fill="none" xmlns="http://www.w3.org/2000/svg">
<g clip-path="url(#clip0_1_250)">
<rect width="28.348" height="19.933" fill="white"/>
<path d="M25.856 0H2.492C1.83173 0.00210951 1.1991 0.265339 0.73222 0.732224C0.265336 1.19911 0.00210951 1.83173 0 2.492L0 17.441C0.00210951 18.1013 0.265336 18.7339 0.73222 19.2008C1.1991 19.6677 1.83173 19.9309 2.492 19.933H25.856C26.5168 19.9325 27.1503 19.6697 27.6175 19.2025C28.0848 18.7353 28.3475 18.1018 28.348 17.441V2.492C28.3475 1.83124 28.0848 1.1977 27.6175 0.730476C27.1503 0.26325 26.5168 0.000529665 25.856 0ZM25.507 1.661L15.935 11.182C15.7036 11.4135 15.4288 11.5972 15.1264 11.7225C14.824 11.8478 14.4998 11.9123 14.1725 11.9123C13.8452 11.9123 13.521 11.8478 13.2186 11.7225C12.9162 11.5972 12.6414 11.4135 12.41 11.182L2.84 1.662L25.507 1.661ZM1.661 17.1V2.831L8.839 9.971L1.661 17.1ZM2.841 18.269L10.016 11.14L11.237 12.355C12.0157 13.1332 13.0716 13.5703 14.1725 13.5703C15.2734 13.5703 16.3293 13.1332 17.108 12.355L18.331 11.139L25.506 18.268L2.841 18.269ZM26.687 17.1L19.509 9.97L26.687 2.83V17.1Z" fill="black"/>
</g>
<defs>
<clipPath id="clip0_1_250">
<rect width="28.348" height="19.933" fill="white"/>
</clipPath>
</defs>
</svg>
