<svg width="31" height="29" viewBox="0 0 31 29" fill="none" xmlns="http://www.w3.org/2000/svg">
<g clip-path="url(#clip0_1_225)">
<rect width="30.389" height="28.279" fill="white"/>
<path fill-rule="evenodd" clip-rule="evenodd" d="M10.684 0.753998C11.6302 0.753998 12.5551 1.03457 13.3418 1.56025C14.1286 2.08592 14.7417 2.83308 15.1038 3.70724C15.4659 4.5814 15.5607 5.5433 15.3761 6.47131C15.1915 7.39931 14.7358 8.25174 14.0668 8.9208C13.3977 9.58985 12.5453 10.0455 11.6173 10.2301C10.6893 10.4147 9.7274 10.3199 8.85323 9.95784C7.97907 9.59575 7.23192 8.98257 6.70625 8.19585C6.18057 7.40912 5.89999 6.48418 5.89999 5.538C5.90079 4.26945 6.40507 3.05308 7.30207 2.15608C8.19907 1.25908 9.41544 0.754793 10.684 0.753998ZM17.43 14.254C18.7464 13.1812 20.3885 12.5882 22.0866 12.5725C23.7846 12.5567 25.4375 13.1191 26.7736 14.1673C28.1096 15.2154 29.0493 16.6869 29.4382 18.3399C29.8271 19.9929 29.642 21.7291 28.9134 23.2629C28.1848 24.7968 26.9561 26.0372 25.4291 26.7801C23.9021 27.5231 22.1678 27.7245 20.5112 27.3511C18.8547 26.9778 17.3744 26.0519 16.3138 24.7258C15.2531 23.3997 14.6752 21.7521 14.675 20.054C14.678 18.943 14.9266 17.8465 15.4029 16.8427C15.8791 15.839 16.5713 14.953 17.43 14.248V14.254ZM21.161 23.717C21.1832 23.9632 21.2958 24.1925 21.4772 24.3606C21.6585 24.5287 21.8957 24.6236 22.1429 24.6271C22.3901 24.6306 22.6298 24.5424 22.8158 24.3795C23.0018 24.2166 23.1209 23.9905 23.15 23.745C23.225 23.726 23.298 23.704 23.367 23.679C23.8478 23.5337 24.2659 23.231 24.5539 22.8195C24.8419 22.4079 24.9832 21.9115 24.955 21.41C24.955 20.202 24.128 19.58 22.968 19.242C22.568 19.124 22.123 19.042 21.736 18.909C21.6279 18.8754 21.5234 18.8312 21.424 18.777C21.393 18.759 21.352 18.749 21.352 18.708C21.352 18.408 21.59 18.291 21.844 18.256C22.3854 18.1937 22.9314 18.3244 23.386 18.625C23.6032 18.7551 23.8616 18.798 24.1092 18.7451C24.3568 18.6921 24.575 18.5472 24.72 18.3396C24.8649 18.132 24.9257 17.8771 24.89 17.6265C24.8544 17.3758 24.725 17.148 24.528 16.989C24.1091 16.7059 23.6427 16.5006 23.151 16.383C23.1278 16.1369 23.0144 15.9081 22.8325 15.7408C22.6505 15.5734 22.4131 15.4794 22.166 15.4768C21.9188 15.4741 21.6794 15.5632 21.494 15.7266C21.3086 15.8901 21.1903 16.1165 21.162 16.362C20.6255 16.4966 20.1501 16.8084 19.813 17.247C19.504 17.67 19.3434 18.1833 19.356 18.707C19.356 19.915 20.183 20.537 21.343 20.875C21.743 20.993 22.188 21.075 22.575 21.208C22.683 21.242 22.7874 21.2862 22.887 21.34C22.918 21.358 22.959 21.368 22.959 21.409C22.959 21.709 22.723 21.816 22.472 21.85C21.9253 21.9093 21.3749 21.7798 20.912 21.483C20.8039 21.3987 20.6796 21.3375 20.5468 21.3033C20.4141 21.2691 20.2757 21.2625 20.1403 21.284C20.0049 21.3055 19.8753 21.3546 19.7597 21.4283C19.6441 21.502 19.5449 21.5987 19.4682 21.7123C19.3915 21.826 19.339 21.9542 19.3139 22.089C19.2889 22.2238 19.2918 22.3623 19.3226 22.4959C19.3533 22.6295 19.4112 22.7553 19.4927 22.8656C19.5741 22.9759 19.6774 23.0683 19.796 23.137C20.214 23.4066 20.676 23.6009 21.161 23.711V23.717Z" stroke="black" stroke-width="1.5"/>
<path d="M3.74301 26.032C6.21201 26.032 10.616 26.032 13.843 26.032C12.4643 24.3439 11.7124 22.2306 11.715 20.051C11.715 16.743 15.204 12.707 15.204 12.707C14.7553 12.5675 14.2976 12.4589 13.834 12.382C12.4944 11.9886 11.1133 11.7536 9.71901 11.682C8.14584 11.644 6.58612 11.9799 5.16801 12.662C1.46101 15.45 0.691008 17.885 0.750008 23.172C0.750008 23.177 0.750008 23.183 0.750008 23.188C0.788514 23.9556 1.12074 24.679 1.67789 25.2084C2.23504 25.7378 2.97444 26.0327 3.74301 26.032Z" stroke="black" stroke-width="1.5"/>
</g>
<defs>
<clipPath id="clip0_1_225">
<rect width="30.389" height="28.279" fill="white"/>
</clipPath>
</defs>
</svg>
