<svg xmlns="http://www.w3.org/2000/svg" width="60" height="60" viewBox="0 0 60 60">
  <g id="Group_83286" data-name="Group 83286" transform="translate(-24 -122)">
    <g id="Group_96140" data-name="Group 96140" transform="translate(24 122)">
      <g id="portrait-smiling-handsome-male-doctor-man" fill="rgba(39,177,164,0.08)">
        <path d="M 30 59.5 C 26.01730918884277 59.5 22.15401077270508 58.72008895874023 18.51741981506348 57.18194961547852 C 15.00463962554932 55.69617080688477 11.84974002838135 53.56903839111328 9.140350341796875 50.85964965820312 C 6.430960178375244 48.15026092529297 4.303830146789551 44.995361328125 2.818049907684326 41.48257827758789 C 1.27990996837616 37.84598922729492 0.5 33.98268890380859 0.5 30 C 0.5 26.01730918884277 1.27990996837616 22.15401077270508 2.818049907684326 18.51741981506348 C 4.303830146789551 15.00463962554932 6.430960178375244 11.84974002838135 9.140350341796875 9.140350341796875 C 11.84974002838135 6.430960178375244 15.00463962554932 4.303830146789551 18.51741981506348 2.818049907684326 C 22.15401077270508 1.27990996837616 26.01730918884277 0.5 30 0.5 C 33.98268890380859 0.5 37.84598922729492 1.27990996837616 41.48257827758789 2.818049907684326 C 44.995361328125 4.303830146789551 48.15026092529297 6.430960178375244 50.85964965820312 9.140350341796875 C 53.56903839111328 11.84974002838135 55.69617080688477 15.00463962554932 57.18194961547852 18.51741981506348 C 58.72008895874023 22.15401077270508 59.5 26.01730918884277 59.5 30 C 59.5 33.98268890380859 58.72008895874023 37.84598922729492 57.18194961547852 41.48257827758789 C 55.69617080688477 44.995361328125 53.56903839111328 48.15026092529297 50.85964965820312 50.85964965820312 C 48.15026092529297 53.56903839111328 44.995361328125 55.69617080688477 41.48257827758789 57.18194961547852 C 37.84598922729492 58.72008895874023 33.98268890380859 59.5 30 59.5 Z" stroke="none"/>
        <path d="M 30 1 C 26.08457946777344 1 22.28681945800781 1.766620635986328 18.71220016479492 3.278549194335938 C 15.2590217590332 4.739128112792969 12.15753936767578 6.830268859863281 9.493900299072266 9.493900299072266 C 6.830268859863281 12.15753936767578 4.739128112792969 15.2590217590332 3.278549194335938 18.71220016479492 C 1.766620635986328 22.28681945800781 1 26.08457946777344 1 30 C 1 33.91542053222656 1.766620635986328 37.71318054199219 3.278549194335938 41.28779983520508 C 4.739128112792969 44.74098205566406 6.830268859863281 47.84246063232422 9.493900299072266 50.50609970092773 C 12.15753936767578 53.16973114013672 15.2590217590332 55.26087188720703 18.71220016479492 56.72145080566406 C 22.28681945800781 58.23337936401367 26.08457946777344 59 30 59 C 33.91542053222656 59 37.71318054199219 58.23337936401367 41.28779983520508 56.72145080566406 C 44.74098205566406 55.26087188720703 47.84246063232422 53.16973114013672 50.50609970092773 50.50609970092773 C 53.16973114013672 47.84246063232422 55.26087188720703 44.74098205566406 56.72145080566406 41.28779983520508 C 58.23337936401367 37.71318054199219 59 33.91542053222656 59 30 C 59 26.08457946777344 58.23337936401367 22.28681945800781 56.72145080566406 18.71220016479492 C 55.26087188720703 15.2590217590332 53.16973114013672 12.15753936767578 50.50609970092773 9.493900299072266 C 47.84246063232422 6.830268859863281 44.74098205566406 4.739128112792969 41.28779983520508 3.278549194335938 C 37.71318054199219 1.766620635986328 33.91542053222656 1 30 1 M 30 0 C 46.56853866577148 0 60 13.43146133422852 60 30 C 60 46.56853866577148 46.56853866577148 60 30 60 C 13.43146133422852 60 0 46.56853866577148 0 30 C 0 13.43146133422852 13.43146133422852 0 30 0 Z" stroke="none" fill="#7580f2"/>
      </g>
      <g id="calendar_3_" data-name="calendar (3)" transform="translate(16.496 16.482)">
        <path id="Path_143391" data-name="Path 143391" d="M25.431,6.055a1.8,1.8,0,0,0-1.8-1.8h-.451V5.6a.9.9,0,0,1-.9.9h-.9a.9.9,0,0,0,.9-.9V2.9a.9.9,0,1,0-1.8,0V4.253H18.222V5.6a.9.9,0,0,1-.9.9h-.9a.9.9,0,0,0,.9-.9V2.9a.9.9,0,0,0-1.8,0V4.253h-2.7V5.6a.9.9,0,0,1-.9.9h-.9a.9.9,0,0,0,.9-.9V2.9a.9.9,0,0,0-1.8,0V4.253H7.858V5.6a.9.9,0,0,1-.9.9h-.9a.9.9,0,0,0,.9-.9V2.9a.9.9,0,1,0-1.8,0V4.253H3.8A1.8,1.8,0,0,0,2,6.055v2.7H25.431Z" transform="translate(-2 -2)" fill="#7580f2"/>
        <path id="Path_143392" data-name="Path 143392" d="M44.957,40a4.957,4.957,0,1,0,4.957,4.957A4.957,4.957,0,0,0,44.957,40Zm0,5.858a.9.9,0,0,1-.326-.063l-1.645,1.316-.563-.7,1.647-1.317a.861.861,0,0,1,.437-.909V41.352h.9V44.18a.9.9,0,0,1-.451,1.677Z" transform="translate(-22.877 -22.877)" fill="#7580f2"/>
        <path id="Path_143393" data-name="Path 143393" d="M3.8,35.672h14.87a5.859,5.859,0,0,1,3.154-7.66H19.574v-2.7h2.7v2.539a5.769,5.769,0,0,1,3.154-.122V19H2V33.87a1.8,1.8,0,0,0,1.8,1.8ZM19.574,20.352h2.7v2.7h-2.7Zm-4.957,0h2.7v2.7h-2.7Zm0,4.957h2.7v2.7h-2.7Zm0,4.957h2.7v2.7h-2.7ZM9.66,20.352h2.7v2.7H9.66Zm0,4.957h2.7v2.7H9.66Zm0,4.957h2.7v2.7H9.66ZM4.7,20.352h2.7v2.7H4.7Zm0,4.957h2.7v2.7H4.7Zm0,4.957h2.7v2.7H4.7Z" transform="translate(-2 -11.34)" fill="#7580f2"/>
      </g>
    </g>
  </g>
</svg>
