<svg xmlns="http://www.w3.org/2000/svg" width="25.635" height="28.567" viewBox="0 0 25.635 28.567">
  <g id="checkout" transform="translate(-24.015)">
    <path id="Path_142115" data-name="Path 142115" d="M48.8,56.307H30.1a.248.248,0,0,1-.148-.441l2.6-2H47.424a1.973,1.973,0,0,0,1.955-1.925l.167-8.578a1.961,1.961,0,0,0-1.666-1.972.853.853,0,1,0-.253,1.688.245.245,0,0,1,.209.246l-.167,8.583a.255.255,0,0,1-.245.249H32.939l-2.7-11.666,1.37.2A.856.856,0,0,0,31.863,39l-2.051-.307-.784-3.048a.849.849,0,0,0-.828-.636H24.87a.855.855,0,1,0,0,1.709h2.666L31.3,52.652,28.9,54.5A1.977,1.977,0,0,0,30.1,58.016h2.245a2.365,2.365,0,0,0-.154.861,2.582,2.582,0,0,0,5.164,0,2.378,2.378,0,0,0-.154-.863h4.67a2.365,2.365,0,0,0-.154.861,2.582,2.582,0,0,0,5.164,0,2.378,2.378,0,0,0-.154-.863H48.8a.855.855,0,1,0,0-1.709ZM34.769,59.722a.855.855,0,1,1,.872-.855A.864.864,0,0,1,34.769,59.722Zm9.526,0a.855.855,0,1,1,.872-.855A.864.864,0,0,1,44.294,59.722Z" transform="translate(0 -32.868)" fill="#051917"/>
    <g id="Group_84114" data-name="Group 84114" transform="translate(33.443)">
      <g id="Group_84112" data-name="Group 84112" transform="translate(0)">
        <path id="Path_142116" data-name="Path 142116" d="M184.687,12.386A6.193,6.193,0,1,1,190.9,6.193,6.209,6.209,0,0,1,184.687,12.386Zm0-10.677a4.484,4.484,0,1,0,4.5,4.484A4.5,4.5,0,0,0,184.687,1.709Z" transform="translate(-178.476)" fill="#051917"/>
      </g>
      <g id="Group_84113" data-name="Group 84113" transform="translate(3.121 3.769)">
        <path id="Path_142117" data-name="Path 142117" d="M231.19,66.352l-1.373-1.63a.855.855,0,0,1,1.308-1.1l.755.9,2.348-2.495a.855.855,0,0,1,1.246,1.17l-3.006,3.194A.953.953,0,0,1,231.19,66.352Z" transform="translate(-229.615 -61.754)" fill="#051917"/>
      </g>
    </g>
  </g>
</svg>
