<svg xmlns="http://www.w3.org/2000/svg" width="22.77" height="28.982" viewBox="0 0 22.77 28.982">
  <g id="clipboard" transform="translate(-47.037)">
    <g id="Group_84084" data-name="Group 84084" transform="translate(47.037 0)">
      <g id="Group_84083" data-name="Group 84083">
        <path id="Path_142093" data-name="Path 142093" d="M66.909,3.8H64.287V2.624c0-.38-.414-.552-.793-.552H61.458A3.086,3.086,0,0,0,58.387,0a3.139,3.139,0,0,0-3.07,2.07h-2c-.379,0-.759.172-.759.552V3.8H49.935a2.933,2.933,0,0,0-2.9,2.794V26.36a2.776,2.776,0,0,0,2.9,2.622H66.909a2.776,2.776,0,0,0,2.9-2.622V6.592A2.933,2.933,0,0,0,66.909,3.8ZM53.937,3.452h1.9a.759.759,0,0,0,.656-.621,2,2,0,0,1,1.9-1.552A1.966,1.966,0,0,1,60.25,2.831a.759.759,0,0,0,.69.621h1.967v2.76h-8.97ZM68.427,26.36A1.4,1.4,0,0,1,66.909,27.6H49.935a1.4,1.4,0,0,1-1.518-1.242V6.592a1.552,1.552,0,0,1,1.518-1.414h2.622V6.937a.725.725,0,0,0,.759.656H63.493a.759.759,0,0,0,.793-.656V5.177h2.622a1.553,1.553,0,0,1,1.518,1.414V26.36Z" transform="translate(-47.037 0)"/>
        <path id="Path_142094" data-name="Path 142094" d="M104.653,230.527a.69.69,0,0,0-.966-.034l-2.208,2.1-.931-.966a.69.69,0,0,0-.966-.034.724.724,0,0,0,0,1L101,234.046a.621.621,0,0,0,.483.207.69.69,0,0,0,.483-.207l2.691-2.553a.655.655,0,0,0,.04-.926C104.68,230.552,104.667,230.539,104.653,230.527Z" transform="translate(-95.924 -215.103)"/>
        <path id="Path_142095" data-name="Path 142095" d="M207.173,256.034h-7.935a.69.69,0,1,0,0,1.38h7.935a.69.69,0,1,0,0-1.38Z" transform="translate(-188.543 -239.127)"/>
        <path id="Path_142096" data-name="Path 142096" d="M104.653,146.935a.69.69,0,0,0-.966-.034l-2.208,2.1-.931-.966a.69.69,0,0,0-.966-.034.724.724,0,0,0,0,1L101,150.454a.621.621,0,0,0,.483.207.69.69,0,0,0,.483-.207l2.691-2.553a.655.655,0,0,0,.04-.926C104.68,146.96,104.667,146.947,104.653,146.935Z" transform="translate(-95.924 -137.031)"/>
        <path id="Path_142097" data-name="Path 142097" d="M207.173,172.442h-7.935a.69.69,0,1,0,0,1.38h7.935a.69.69,0,0,0,0-1.38Z" transform="translate(-188.543 -161.055)"/>
        <path id="Path_142098" data-name="Path 142098" d="M104.653,314.118a.69.69,0,0,0-.966-.034l-2.208,2.1-.931-.966a.69.69,0,0,0-.966-.034.724.724,0,0,0,0,1L101,317.637a.621.621,0,0,0,.483.207.69.69,0,0,0,.483-.207l2.691-2.553a.655.655,0,0,0,.04-.926C104.68,314.144,104.667,314.131,104.653,314.118Z" transform="translate(-95.924 -293.174)"/>
        <path id="Path_142099" data-name="Path 142099" d="M207.173,339.626h-7.935a.69.69,0,0,0,0,1.38h7.935a.69.69,0,0,0,0-1.38Z" transform="translate(-188.543 -317.199)"/>
      </g>
    </g>
  </g>
</svg>
