<svg id="dashboard" xmlns="http://www.w3.org/2000/svg" width="28.918" height="28.918" viewBox="0 0 28.918 28.918">
  <path id="Path_142111" data-name="Path 142111" d="M11.145,9.639H2.108A2.111,2.111,0,0,1,0,7.531V2.109A2.111,2.111,0,0,1,2.108,0h9.037a2.111,2.111,0,0,1,2.109,2.108V7.531A2.111,2.111,0,0,1,11.145,9.639ZM2.108,1.807a.3.3,0,0,0-.3.3V7.531a.3.3,0,0,0,.3.3h9.037a.3.3,0,0,0,.3-.3V2.109a.3.3,0,0,0-.3-.3Zm0,0" transform="translate(0 0)" fill="#051917"/>
  <path id="Path_142112" data-name="Path 142112" d="M11.145,230.2H2.108A2.111,2.111,0,0,1,0,228.092V215.441a2.111,2.111,0,0,1,2.108-2.109h9.037a2.111,2.111,0,0,1,2.109,2.109v12.651A2.111,2.111,0,0,1,11.145,230.2ZM2.108,215.139a.3.3,0,0,0-.3.3v12.651a.3.3,0,0,0,.3.3h9.037a.3.3,0,0,0,.3-.3V215.441a.3.3,0,0,0-.3-.3Zm0,0" transform="translate(0 -201.283)" fill="#051917"/>
  <path id="Path_142113" data-name="Path 142113" d="M288.478,350.971h-9.037a2.111,2.111,0,0,1-2.109-2.108v-5.422a2.111,2.111,0,0,1,2.109-2.109h9.037a2.111,2.111,0,0,1,2.108,2.109v5.422A2.111,2.111,0,0,1,288.478,350.971Zm-9.037-7.832a.3.3,0,0,0-.3.3v5.422a.3.3,0,0,0,.3.3h9.037a.3.3,0,0,0,.3-.3v-5.422a.3.3,0,0,0-.3-.3Zm0,0" transform="translate(-261.669 -322.054)" fill="#051917"/>
  <path id="Path_142114" data-name="Path 142114" d="M288.478,16.869h-9.037a2.111,2.111,0,0,1-2.109-2.109V2.109A2.111,2.111,0,0,1,279.441,0h9.037a2.111,2.111,0,0,1,2.108,2.108V14.76A2.111,2.111,0,0,1,288.478,16.869ZM279.441,1.807a.3.3,0,0,0-.3.3V14.76a.3.3,0,0,0,.3.3h9.037a.3.3,0,0,0,.3-.3V2.109a.3.3,0,0,0-.3-.3Zm0,0" transform="translate(-261.669 0)" fill="#051917"/>
</svg>
