<svg xmlns="http://www.w3.org/2000/svg" width="19.953" height="24.568" viewBox="0 0 19.953 24.568">
  <g id="delete" transform="translate(0.003 0.002)">
    <path id="Path_142104" data-name="Path 142104" d="M222.973,154.7a.575.575,0,0,0-.575.575v10.874a.575.575,0,0,0,1.151,0V155.278A.575.575,0,0,0,222.973,154.7Zm0,0" transform="translate(-209.605 -145.803)" fill="#f44336"/>
    <path id="Path_142105" data-name="Path 142105" d="M104.973,154.7a.575.575,0,0,0-.575.575v10.874a.575.575,0,0,0,1.151,0V155.278A.575.575,0,0,0,104.973,154.7Zm0,0" transform="translate(-98.395 -145.803)" fill="#f44336"/>
    <path id="Path_142106" data-name="Path 142106" d="M1.631,7.313V21.488a3.174,3.174,0,0,0,.844,2.189,2.833,2.833,0,0,0,2.056.889H15.416a2.833,2.833,0,0,0,2.056-.889,3.174,3.174,0,0,0,.844-2.189V7.313a2.2,2.2,0,0,0-.564-4.322H14.806V2.271A2.26,2.26,0,0,0,12.528,0H7.419A2.26,2.26,0,0,0,5.14,2.271V2.99H2.195a2.2,2.2,0,0,0-.564,4.322Zm13.786,16.1H4.531a1.822,1.822,0,0,1-1.749-1.927V7.363H17.165V21.488a1.822,1.822,0,0,1-1.749,1.927ZM6.291,2.271A1.108,1.108,0,0,1,7.419,1.149h5.109a1.108,1.108,0,0,1,1.128,1.122V2.99H6.291Zm-4.1,1.87H17.752a1.036,1.036,0,0,1,0,2.071H2.195a1.036,1.036,0,0,1,0-2.071Zm0,0" transform="translate(0 0)" fill="#f44336"/>
    <path id="Path_142107" data-name="Path 142107" d="M163.973,154.7a.575.575,0,0,0-.575.575v10.874a.575.575,0,1,0,1.151,0V155.278A.575.575,0,0,0,163.973,154.7Zm0,0" transform="translate(-154 -145.803)" fill="#f44336"/>
  </g>
</svg>
