<svg id="Group_90578" data-name="Group 90578" xmlns="http://www.w3.org/2000/svg" xmlns:xlink="http://www.w3.org/1999/xlink" width="124" height="124" viewBox="0 0 124 124">
  <defs>
    <clipPath id="clip-path">
      <rect id="Rectangle_23685" data-name="Rectangle 23685" width="124" height="124" fill="#fff" stroke="#707070" stroke-width="1"/>
    </clipPath>
  </defs>
  <g id="Group_93995" data-name="Group 93995">
    <g id="Mask_Group_173" data-name="Mask Group 173" clip-path="url(#clip-path)">
      <g id="_x38_59-Interface_x2C__Tick_x2C__User" transform="translate(6.657 5.278)">
        <g id="Group_82993" data-name="Group 82993" transform="translate(0 0)">
          <path id="Path_84388" data-name="Path 84388" d="M195.382,210.976a5.513,5.513,0,1,1-5.513,5.513A5.512,5.512,0,0,1,195.382,210.976Z" transform="translate(-96.143 -103.467)" fill="#d6d6d6"/>
          <path id="Path_84390" data-name="Path 84390" d="M32.049,22.042a6.892,6.892,0,1,1-6.892,6.892A6.891,6.891,0,0,1,32.049,22.042Z" transform="translate(-25.157 -22.042)" fill="#d6d6d6"/>
          <g id="Group_82992" data-name="Group 82992" transform="translate(22.053 9.095)">
            <path id="Path_84391" data-name="Path 84391" d="M153.038,121.688a2.757,2.757,0,1,0-5.513,0,27.6,27.6,0,0,1-27.566,27.566,2.757,2.757,0,0,0-2.757,2.757v10.933c.911.06,1.83.094,2.757.094s1.845-.034,2.757-.094v-8.29A33.125,33.125,0,0,0,153.038,121.688Z" transform="translate(-86.879 -65.449)" fill="#d6d6d6"/>
            <path id="Path_84392" data-name="Path 84392" d="M63.913,92.458a2.757,2.757,0,0,0,5.513,0A27.6,27.6,0,0,1,96.992,64.892a2.757,2.757,0,0,0,2.757-2.757V51.2c-.912-.06-1.83-.094-2.757-.094s-1.845.034-2.757.094v8.29A33.125,33.125,0,0,0,63.913,92.458Z" transform="translate(-63.913 -51.109)" fill="#d6d6d6"/>
          </g>
          <path id="Subtraction_1" data-name="Subtraction 1" d="M55.132,110.266A55.148,55.148,0,0,1,33.672,4.333a55.147,55.147,0,0,1,42.92,101.6A54.786,54.786,0,0,1,55.132,110.266Zm0-103.373a48.24,48.24,0,1,0,48.241,48.239A48.294,48.294,0,0,0,55.132,6.893Z" transform="translate(0.043 2.911)" fill="#f44336"/>
        </g>
      </g>
    </g>
    <g id="delete" transform="translate(48.657 45.724)">
      <path id="Path_142104" data-name="Path 142104" d="M223.151,154.7a.753.753,0,0,0-.753.753v14.228a.753.753,0,0,0,1.506,0V155.456A.753.753,0,0,0,223.151,154.7Zm0,0" transform="translate(-205.656 -143.057)" fill="#f44336"/>
      <path id="Path_142105" data-name="Path 142105" d="M105.151,154.7a.753.753,0,0,0-.753.753v14.228a.753.753,0,0,0,1.506,0V155.456A.753.753,0,0,0,105.151,154.7Zm0,0" transform="translate(-96.539 -143.057)" fill="#f44336"/>
      <path id="Path_142106" data-name="Path 142106" d="M2.135,9.568V28.116a4.153,4.153,0,0,0,1.1,2.864,3.707,3.707,0,0,0,2.69,1.163H20.172a3.706,3.706,0,0,0,2.69-1.163,4.153,4.153,0,0,0,1.1-2.864V9.568a2.876,2.876,0,0,0-.738-5.655H19.374V2.972A2.957,2.957,0,0,0,16.393,0H9.708A2.957,2.957,0,0,0,6.727,2.972v.941H2.873a2.876,2.876,0,0,0-.738,5.655ZM20.172,30.638H5.929A2.384,2.384,0,0,1,3.64,28.116V9.634H22.46V28.116a2.384,2.384,0,0,1-2.288,2.522ZM8.232,2.972A1.45,1.45,0,0,1,9.708,1.5h6.685a1.45,1.45,0,0,1,1.476,1.468v.941H8.232ZM2.873,5.419H23.228a1.355,1.355,0,0,1,0,2.71H2.873a1.355,1.355,0,0,1,0-2.71Zm0,0" transform="translate(0.003 0.002)" fill="#f44336"/>
      <path id="Path_142107" data-name="Path 142107" d="M164.151,154.7a.753.753,0,0,0-.753.753v14.228a.753.753,0,1,0,1.506,0V155.456A.753.753,0,0,0,164.151,154.7Zm0,0" transform="translate(-151.097 -143.057)" fill="#f44336"/>
    </g>
  </g>
</svg>
