<svg xmlns="http://www.w3.org/2000/svg" width="28.902" height="28.93" viewBox="0 0 28.902 28.93">
  <path id="filter" d="M.9,4.861H14.655a4.207,4.207,0,0,0,8.217,0H28a.9.9,0,1,0,0-1.806H22.871a4.206,4.206,0,0,0-8.216,0H.9a.9.9,0,0,0,0,1.806Zm15.46-.9s0-.006,0-.01a2.4,2.4,0,0,1,4.8,0v.013a2.4,2.4,0,0,1-4.8,0ZM28,23.573H22.871a4.206,4.206,0,0,0-8.216,0H.9a.9.9,0,0,0,0,1.806H14.655a4.207,4.207,0,0,0,8.217,0H28a.9.9,0,0,0,0-1.806Zm-9.236,3.3a2.4,2.4,0,0,1-2.4-2.394v0s0-.006,0-.01a2.4,2.4,0,0,1,4.8,0v.013a2.4,2.4,0,0,1-2.4,2.4ZM28,13.314H14.248a4.207,4.207,0,0,0-8.217,0H.9a.9.9,0,0,0,0,1.806H6.032a4.206,4.206,0,0,0,8.216,0H28a.9.9,0,0,0,0-1.806Zm-15.46.9s0,.006,0,.01a2.4,2.4,0,0,1-4.8,0v-.013a2.4,2.4,0,0,1,4.8,0Z" transform="translate(0 0.248)" opacity="0.5"/>
</svg>
