<svg xmlns="http://www.w3.org/2000/svg" width="28.348" height="19.933" viewBox="0 0 28.348 19.933">
  <g id="mail" transform="translate(0 -76)">
    <g id="Group_84363" data-name="Group 84363" transform="translate(0 76)">
      <path id="Path_142176" data-name="Path 142176" d="M25.856,76H2.492A2.5,2.5,0,0,0,0,78.492V93.441a2.5,2.5,0,0,0,2.492,2.492H25.856a2.494,2.494,0,0,0,2.492-2.492V78.492A2.494,2.494,0,0,0,25.856,76Zm-.349,1.661-9.572,9.521a2.492,2.492,0,0,1-3.525,0l-9.57-9.52ZM1.661,93.1V78.831l7.178,7.14Zm1.18,1.169,7.175-7.129,1.221,1.215a4.153,4.153,0,0,0,5.871,0l1.223-1.216,7.175,7.129ZM26.687,93.1l-7.178-7.13,7.178-7.14Z" transform="translate(0 -76)" fill="#051917"/>
    </g>
  </g>
</svg>
