<svg xmlns="http://www.w3.org/2000/svg" width="28.94" height="32.927" viewBox="0 0 28.94 32.927">
  <g id="notification" transform="translate(-30.999)">
    <path id="Path_142077" data-name="Path 142077" d="M55.437,16.9V13.827a9.986,9.986,0,0,0-7.074-9.539V2.894a2.894,2.894,0,0,0-5.788,0V4.288A9.986,9.986,0,0,0,35.5,13.827V16.9a15.147,15.147,0,0,1-4.233,10.531.965.965,0,0,0,.7,1.632h8.779a4.824,4.824,0,0,0,9.453,0h8.779a.965.965,0,0,0,.7-1.632A15.147,15.147,0,0,1,55.437,16.9ZM44.5,2.894a.965.965,0,0,1,1.929,0V3.905c-.318-.031-.639-.047-.965-.047s-.647.016-.965.047ZM45.469,31a2.9,2.9,0,0,1-2.728-1.929H48.2A2.9,2.9,0,0,1,45.469,31ZM34.043,27.139A17.056,17.056,0,0,0,37.43,16.9V13.827a8.039,8.039,0,0,1,16.078,0V16.9A17.056,17.056,0,0,0,56.9,27.139Z"/>
    <path id="Path_142078" data-name="Path 142078" d="M393.372,61.82a.946.946,0,0,0,1.892,0,14.1,14.1,0,0,0-4.157-10.036.946.946,0,1,0-1.338,1.338A12.22,12.22,0,0,1,393.372,61.82Z" transform="translate(-335.326 -48.258)"/>
    <path id="Path_142079" data-name="Path 142079" d="M31.946,62.767a.946.946,0,0,0,.946-.946,12.221,12.221,0,0,1,3.6-8.7.946.946,0,1,0-1.338-1.338A14.1,14.1,0,0,0,31,61.821.946.946,0,0,0,31.946,62.767Z" transform="translate(-0.001 -48.258)"/>
  </g>
</svg>
