<svg xmlns="http://www.w3.org/2000/svg" width="30.286" height="30.286" viewBox="0 0 30.286 30.286">
  <path id="Path_85023" data-name="Path 85023" d="M14.393,0A14.393,14.393,0,1,0,28.786,14.393,14.393,14.393,0,0,0,14.393,0Zm3,22.307q-1.111.438-1.773.668a4.677,4.677,0,0,1-1.538.23,3.065,3.065,0,0,1-2.093-.657,2.119,2.119,0,0,1-.745-1.666,6.05,6.05,0,0,1,.055-.8c.038-.273.1-.579.179-.925l.927-3.275c.081-.314.153-.613.208-.891a3.95,3.95,0,0,0,.083-.771,1.188,1.188,0,0,0-.258-.876,1.467,1.467,0,0,0-.99-.25,2.6,2.6,0,0,0-.737.11c-.25.076-.467.146-.645.214l.25-1.009q.91-.375,1.742-.635a5.148,5.148,0,0,1,1.567-.257,3,3,0,0,1,2.061.646,2.145,2.145,0,0,1,.723,1.677q0,.214-.05.751a5.03,5.03,0,0,1-.185.989l-.922,3.265c-.075.262-.143.562-.2.9a4.742,4.742,0,0,0-.089.762,1.1,1.1,0,0,0,.292.887,1.627,1.627,0,0,0,1.008.237,2.922,2.922,0,0,0,.762-.118,4.337,4.337,0,0,0,.617-.208ZM17.227,9.053a2.2,2.2,0,0,1-1.553.6,2.224,2.224,0,0,1-1.559-.6,1.914,1.914,0,0,1-.65-1.453,1.934,1.934,0,0,1,.65-1.457,2.208,2.208,0,0,1,1.559-.606,2.184,2.184,0,0,1,1.553.606,1.962,1.962,0,0,1,0,2.911Z" transform="translate(0.75 0.75)" fill="#fff" stroke="#051917" stroke-width="1.5"/>
</svg>
