<svg id="question" xmlns="http://www.w3.org/2000/svg" width="28.937" height="28.937" viewBox="0 0 28.937 28.937">
  <g id="Group_84057" data-name="Group 84057">
    <g id="Group_84056" data-name="Group 84056">
      <path id="Path_142080" data-name="Path 142080" d="M14.468,0A14.468,14.468,0,1,0,28.937,14.468,14.46,14.46,0,0,0,14.468,0Zm0,26.918A12.449,12.449,0,1,1,26.918,14.468,12.464,12.464,0,0,1,14.468,26.918Z"/>
    </g>
  </g>
  <g id="Group_84059" data-name="Group 84059" transform="translate(12.593 18.307)">
    <g id="Group_84058" data-name="Group 84058">
      <path id="Path_142081" data-name="Path 142081" d="M224.262,323.924a1.467,1.467,0,0,0,0,2.933,1.466,1.466,0,0,0,0-2.933Z" transform="translate(-222.815 -323.924)"/>
    </g>
  </g>
  <g id="Group_84061" data-name="Group 84061" transform="translate(10.536 7.204)">
    <g id="Group_84060" data-name="Group 84060">
      <path id="Path_142082" data-name="Path 142082" d="M190.173,127.469c-2.571,0-3.752,1.524-3.752,2.552a1.092,1.092,0,0,0,1.143,1.086c1.028,0,.609-1.466,2.552-1.466.952,0,1.714.419,1.714,1.3,0,1.028-1.067,1.619-1.695,2.152a3.486,3.486,0,0,0-1.276,2.895c0,.99.267,1.276,1.047,1.276.933,0,1.124-.419,1.124-.781A2.392,2.392,0,0,1,192.1,134.1c.514-.4,2.133-1.695,2.133-3.485S192.61,127.469,190.173,127.469Z" transform="translate(-186.421 -127.469)"/>
    </g>
  </g>
</svg>
