<svg id="search-interface-symbol" xmlns="http://www.w3.org/2000/svg" width="28" height="28.001" viewBox="0 0 28 28.001">
  <g id="_x34__4_" transform="translate(0)">
    <g id="Group_84053" data-name="Group 84053">
      <path id="Path_142076" data-name="Path 142076" d="M27.741,26.477l-7.229-7.114a11.435,11.435,0,0,0,3.056-7.77A11.689,11.689,0,0,0,11.786,0,11.688,11.688,0,0,0,.006,11.593,11.688,11.688,0,0,0,11.786,23.186,11.848,11.848,0,0,0,19.2,20.6l7.257,7.142a.916.916,0,0,0,1.281,0A.883.883,0,0,0,27.741,26.477ZM11.786,21.4a9.89,9.89,0,0,1-9.968-9.81,9.89,9.89,0,0,1,9.968-9.81,9.89,9.89,0,0,1,9.968,9.81A9.89,9.89,0,0,1,11.786,21.4Z" transform="translate(-0.006)" fill="rgba(0,0,0,0.35)"/>
    </g>
  </g>
</svg>
