<svg id="discount" xmlns="http://www.w3.org/2000/svg" width="28.606" height="29.812" viewBox="0 0 28.606 29.812">
  <g id="Group_84117" data-name="Group 84117">
    <g id="Group_84116" data-name="Group 84116">
      <path id="Path_142118" data-name="Path 142118" d="M37.586,15.29a.874.874,0,0,1,0-.772L38.7,12.244a2.588,2.588,0,0,0-1.117-3.437L35.344,7.62A.874.874,0,0,1,34.89,7L34.453,4.5A2.588,2.588,0,0,0,31.53,2.378l-2.507.355a.874.874,0,0,1-.734-.239L26.469.733a2.588,2.588,0,0,0-3.614,0l-1.82,1.76a.874.874,0,0,1-.734.239l-2.507-.355A2.588,2.588,0,0,0,14.871,4.5L14.433,7a.874.874,0,0,1-.454.625L11.743,8.807a2.588,2.588,0,0,0-1.117,3.437l1.112,2.275a.874.874,0,0,1,0,.772l-1.112,2.275A2.588,2.588,0,0,0,11.743,21l2.236,1.187a.874.874,0,0,1,.454.625l.437,2.494a2.586,2.586,0,0,0,2.551,2.15,2.659,2.659,0,0,0,.372-.026l2.507-.355a.873.873,0,0,1,.734.239l1.82,1.76a2.588,2.588,0,0,0,3.614,0l1.82-1.76a.875.875,0,0,1,.734-.239l2.507.355a2.588,2.588,0,0,0,2.923-2.124l.437-2.494a.874.874,0,0,1,.454-.625L37.581,21A2.588,2.588,0,0,0,38.7,17.565Zm-.811,4.192L34.539,20.67A2.582,2.582,0,0,0,33.2,22.516L32.76,25.01a.876.876,0,0,1-.989.719l-2.507-.355a2.581,2.581,0,0,0-2.171.705l-1.82,1.76a.876.876,0,0,1-1.223,0l-1.82-1.76a2.58,2.58,0,0,0-1.8-.731,2.639,2.639,0,0,0-.37.026l-2.507.355a.876.876,0,0,1-.989-.719l-.437-2.494a2.582,2.582,0,0,0-1.342-1.846l-2.236-1.187a.876.876,0,0,1-.378-1.163l1.112-2.275a2.582,2.582,0,0,0,0-2.282l-1.112-2.275a.876.876,0,0,1,.378-1.163l2.236-1.187a2.582,2.582,0,0,0,1.342-1.847L16.564,4.8a.876.876,0,0,1,.989-.719l2.507.355a2.582,2.582,0,0,0,2.171-.705l1.82-1.76a.876.876,0,0,1,1.223,0l1.82,1.76a2.582,2.582,0,0,0,2.171.705L31.77,4.08a.876.876,0,0,1,.989.719L33.2,7.293a2.582,2.582,0,0,0,1.342,1.846l2.236,1.187a.876.876,0,0,1,.378,1.163l-1.112,2.275a2.582,2.582,0,0,0,0,2.282l1.112,2.275A.876.876,0,0,1,36.775,19.483Z" transform="translate(-10.359 0.002)"/>
    </g>
  </g>
  <g id="Group_84121" data-name="Group 84121" transform="translate(7.223 7.826)">
    <g id="Group_84120" data-name="Group 84120">
      <path id="Path_142120" data-name="Path 142120" d="M149.882,123.116a7.08,7.08,0,1,0,7.08,7.08A7.088,7.088,0,0,0,149.882,123.116Zm0,10.3A3.218,3.218,0,1,1,153.1,130.2,3.222,3.222,0,0,1,149.882,133.414Z" transform="translate(-142.802 -123.116)" stroke="#fff" stroke-width="2.2"/>
    </g>
  </g>
</svg>
