<svg xmlns="http://www.w3.org/2000/svg" width="30.377" height="30.317" viewBox="0 0 30.377 30.317">
  <g id="Group_9597" data-name="Group 9597" transform="translate(0.75 0.75)">
    <rect id="Rectangle_17" data-name="Rectangle 17" width="28.819" height="28.819" fill="none" stroke="#fff" stroke-width="1" opacity="0"/>
    <g id="profile">
      <circle id="Ellipse_2" data-name="Ellipse 2" cx="6.265" cy="6.265" r="6.265" transform="translate(5.09)" fill="none" stroke="#fff" stroke-width="1.5"/>
      <path id="Path_59325" data-name="Path 59325" d="M14.452,23.026a3.141,3.141,0,0,1,.251-3.508,3.14,3.14,0,0,1-.251-3.508l1.014-1.754a3.141,3.141,0,0,1,2.714-1.566,3.19,3.19,0,0,1,.452.033,3.258,3.258,0,0,1,.145-.3A5.91,5.91,0,0,0,16.6,12H5.952A5.959,5.959,0,0,0,0,17.952v4.385a.94.94,0,0,0,.94.94H14.6Z" transform="translate(0 3.036)" fill="none" stroke="#fff" stroke-width="1.5"/>
      <path id="Path_59326" data-name="Path 59326" d="M23.851,19.852a4.554,4.554,0,0,0,.063-.588,4.76,4.76,0,0,0-.059-.588l1.128-.855a.626.626,0,0,0,.164-.813l-1.014-1.754a.626.626,0,0,0-.786-.264l-1.3.548a4.655,4.655,0,0,0-1.026-.61l-.173-1.378A.627.627,0,0,0,20.223,13H18.2a.627.627,0,0,0-.626.549L17.4,14.928a4.675,4.675,0,0,0-1.026.61l-1.3-.548a.627.627,0,0,0-.786.264l-1.014,1.754a.627.627,0,0,0,.164.813l1.128.855a4.553,4.553,0,0,0-.059.588,4.761,4.761,0,0,0,.059.588l-1.128.855a.626.626,0,0,0-.164.813l1.014,1.754a.627.627,0,0,0,.786.264l1.3-.549a4.655,4.655,0,0,0,1.026.61l.173,1.378a.626.626,0,0,0,.626.549h2.026a.626.626,0,0,0,.626-.549l.173-1.378a4.675,4.675,0,0,0,1.026-.61l1.3.548a.627.627,0,0,0,.786-.264l1.014-1.754a.626.626,0,0,0-.164-.813Zm-4.636,1.918a2.506,2.506,0,1,1,2.506-2.506A2.506,2.506,0,0,1,19.215,21.771Z" transform="translate(3.587 3.289)" fill="none" stroke="#fff" stroke-width="1.5"/>
    </g>
  </g>
</svg>
