<svg xmlns="http://www.w3.org/2000/svg" width="24.862" height="24.862" viewBox="0 0 24.862 24.862">
  <g id="witness" transform="translate(0)">
    <path id="Path_142191" data-name="Path 142191" d="M24.7,129.073a17.052,17.052,0,0,0-12.265-5.966A17.06,17.06,0,0,0,.165,129.073a.731.731,0,0,0,0,.928,17.036,17.036,0,0,0,12.265,5.966c5.34,0,10.1-3.332,12.265-5.966A.731.731,0,0,0,24.7,129.073Zm-7.3.464a4.967,4.967,0,1,1-4.967-4.967A4.973,4.973,0,0,1,17.4,129.537Zm-15.679,0a17.662,17.662,0,0,1,5.593-3.886,6.413,6.413,0,0,0,0,7.771,17.339,17.339,0,0,1-5.592-3.885Zm15.831,3.886a6.413,6.413,0,0,0,0-7.771,17.342,17.342,0,0,1,5.592,3.885A17.661,17.661,0,0,1,17.549,133.423Z" transform="translate(0 -117.106)" fill="#f44336"/>
    <path id="Path_142192" data-name="Path 142192" d="M204,206.486A2.486,2.486,0,1,0,206.486,204,2.489,2.489,0,0,0,204,206.486Zm3.51,0a1.024,1.024,0,1,1-1.024-1.024A1.025,1.025,0,0,1,207.51,206.486Z" transform="translate(-194.056 -194.055)" fill="#f44336"/>
    <path id="Path_142193" data-name="Path 142193" d="M240.731,3.169a.731.731,0,0,0,.731-.731V.731a.731.731,0,1,0-1.462,0V2.437A.731.731,0,0,0,240.731,3.169Z" transform="translate(-228.301)" fill="#f44336"/>
    <path id="Path_142194" data-name="Path 142194" d="M337.3,25.1a.731.731,0,0,0,1-.273l.973-1.706A.731.731,0,1,0,338,22.4l-.973,1.706A.731.731,0,0,0,337.3,25.1Z" transform="translate(-320.505 -20.955)" fill="#f44336"/>
    <path id="Path_142195" data-name="Path 142195" d="M124.174,24.829a.731.731,0,1,0,1.27-.725l-.973-1.706a.731.731,0,1,0-1.27.725Z" transform="translate(-117.104 -20.955)" fill="#f44336"/>
    <path id="Path_142196" data-name="Path 142196" d="M240.731,445a.731.731,0,0,0-.731.731v1.706a.731.731,0,1,0,1.462,0v-1.706A.731.731,0,0,0,240.731,445Z" transform="translate(-228.301 -423.307)" fill="#f44336"/>
    <path id="Path_142197" data-name="Path 142197" d="M125.171,423.063a.731.731,0,0,0-1,.273l-.973,1.706a.731.731,0,1,0,1.27.725l.973-1.706A.731.731,0,0,0,125.171,423.063Z" transform="translate(-117.104 -402.348)" fill="#f44336"/>
    <path id="Path_142198" data-name="Path 142198" d="M338.3,423.335a.731.731,0,1,0-1.27.725l.973,1.706a.731.731,0,1,0,1.27-.725Z" transform="translate(-320.505 -402.347)" fill="#f44336"/>
  </g>
</svg>
