<svg xmlns="http://www.w3.org/2000/svg" width="30.233" height="23.543" viewBox="0 0 30.233 23.543">
  <g id="delivery" transform="translate(0.05 -78.471)">
    <g id="Group_95778" data-name="Group 95778" transform="translate(18.09 93.776)">
      <g id="Group_95777" data-name="Group 95777">
        <path id="Path_142294" data-name="Path 142294" d="M326.245,304.4a4.094,4.094,0,1,0,4.094,4.094A4.1,4.1,0,0,0,326.245,304.4Zm0,6.141a2.047,2.047,0,1,1,2.047-2.047A2.049,2.049,0,0,1,326.245,310.544Z" transform="translate(-322.151 -304.403)" fill="#051917" stroke="#fff" stroke-width="0.1"/>
      </g>
    </g>
    <g id="Group_95780" data-name="Group 95780" transform="translate(5.825 93.776)">
      <g id="Group_95779" data-name="Group 95779">
        <path id="Path_142295" data-name="Path 142295" d="M105.741,304.4a4.094,4.094,0,1,0,4.094,4.094A4.1,4.1,0,0,0,105.741,304.4Zm0,6.141a2.047,2.047,0,1,1,2.047-2.047A2.049,2.049,0,0,1,105.741,310.544Z" transform="translate(-101.647 -304.403)" fill="#051917" stroke="#fff" stroke-width="0.1"/>
      </g>
    </g>
    <g id="Group_95782" data-name="Group 95782" transform="translate(18.636 80.568)">
      <g id="Group_95781" data-name="Group 95781" transform="translate(0 0)">
        <path id="Path_142296" data-name="Path 142296" d="M337.061,111.354a1.024,1.024,0,0,0-.915-.564h-5.39v2.047h4.759l2.787,5.543,1.829-.92Z" transform="translate(-330.756 -110.79)" fill="#051917" stroke="#fff" stroke-width="0.1"/>
      </g>
    </g>
    <g id="Group_95784" data-name="Group 95784" transform="translate(12.382 96.88)">
      <g id="Group_95783" data-name="Group 95783" transform="translate(0 0)">
        <rect id="Rectangle_26905" data-name="Rectangle 26905" width="6.668" height="2.047" fill="#051917" stroke="#fff" stroke-width="0.1"/>
      </g>
    </g>
    <g id="Group_95786" data-name="Group 95786" transform="translate(2.9 96.88)">
      <g id="Group_95785" data-name="Group 95785" transform="translate(0 0)">
        <path id="Path_142297" data-name="Path 142297" d="M49.507,353.345H46.564a1.041,1.041,0,0,0,0,2.047h2.943a1.041,1.041,0,0,0,0-2.047Z" transform="translate(-45.715 -353.345)" fill="#051917" stroke="#fff" stroke-width="0.1"/>
      </g>
    </g>
    <g id="Group_95788" data-name="Group 95788" transform="translate(2.9 78.521)">
      <g id="Group_95787" data-name="Group 95787">
        <path id="Path_142298" data-name="Path 142298" d="M72.75,90.229,70.9,87.513a.906.906,0,0,0-.744-.415H63.3v-7.5a1.013,1.013,0,0,0-.942-1.072H46.657a1.081,1.081,0,0,0,0,2.144H61.42v7.5a1.013,1.013,0,0,0,.942,1.072h7.328l1.372,2.011v5.529H68.456a1.081,1.081,0,0,0,0,2.144h3.549a1.014,1.014,0,0,0,.942-1.072V90.886A1.172,1.172,0,0,0,72.75,90.229Z" transform="translate(-45.715 -78.521)" fill="#051917" stroke="#fff" stroke-width="0.1"/>
      </g>
    </g>
    <g id="Group_95790" data-name="Group 95790" transform="translate(1.672 91.323)">
      <g id="Group_95789" data-name="Group 95789" transform="translate(0 0)">
        <path id="Path_142299" data-name="Path 142299" d="M32.084,271.6H27.376a1.023,1.023,0,1,0,0,2.047h4.708a1.023,1.023,0,0,0,0-2.047Z" transform="translate(-26.353 -271.597)" fill="#051917" stroke="#fff" stroke-width="0.1"/>
      </g>
    </g>
    <g id="Group_95792" data-name="Group 95792" transform="translate(0 87.115)">
      <g id="Group_95791" data-name="Group 95791">
        <path id="Path_142300" data-name="Path 142300" d="M9.757,208.134H1.023a1.023,1.023,0,0,0,0,2.047H9.757a1.023,1.023,0,0,0,0-2.047Z" transform="translate(0 -208.134)" fill="#051917" stroke="#fff" stroke-width="0.1"/>
      </g>
    </g>
    <g id="Group_95794" data-name="Group 95794" transform="translate(1.672 82.907)">
      <g id="Group_95793" data-name="Group 95793">
        <path id="Path_142301" data-name="Path 142301" d="M36.11,144.672H27.376a1.023,1.023,0,1,0,0,2.047H36.11a1.023,1.023,0,1,0,0-2.047Z" transform="translate(-26.353 -144.672)" fill="#051917" stroke="#fff" stroke-width="0.1"/>
      </g>
    </g>
  </g>
</svg>
