<svg xmlns="http://www.w3.org/2000/svg" width="25.489" height="28.99" viewBox="0 0 25.489 28.99">
  <g id="notification" transform="translate(-30.999)">
    <path id="Path_142077" data-name="Path 142077" d="M52.518,14.882V12.176a8.793,8.793,0,0,0-6.229-8.4V2.548a2.548,2.548,0,1,0-5.1,0V3.776a8.793,8.793,0,0,0-6.23,8.4v2.706a13.338,13.338,0,0,1-3.727,9.273.85.85,0,0,0,.616,1.437h7.73a4.248,4.248,0,0,0,8.324,0h7.73a.85.85,0,0,0,.616-1.437,13.338,13.338,0,0,1-3.734-9.273ZM42.888,2.548a.85.85,0,0,1,1.7,0v.89c-.28-.027-.563-.041-.85-.041s-.57.014-.85.041ZM43.741,27.3a2.554,2.554,0,0,1-2.4-1.7h4.807A2.554,2.554,0,0,1,43.741,27.3ZM33.679,23.9a15.019,15.019,0,0,0,2.982-9.016V12.176a7.079,7.079,0,0,1,14.158,0v2.706A15.019,15.019,0,0,0,53.807,23.9Z" transform="translate(0)"/>
    <path id="Path_142078" data-name="Path 142078" d="M392.909,60.588a.833.833,0,0,0,1.666,0,12.416,12.416,0,0,0-3.661-8.837.833.833,0,0,0-1.178,1.178A10.76,10.76,0,0,1,392.909,60.588Z" transform="translate(-338.093 -48.646)"/>
    <path id="Path_142079" data-name="Path 142079" d="M31.833,61.422a.833.833,0,0,0,.833-.833,10.761,10.761,0,0,1,3.17-7.661.833.833,0,0,0-1.178-1.178A12.416,12.416,0,0,0,31,60.589a.833.833,0,0,0,.833.833Z" transform="translate(-0.001 -48.646)"/>
  </g>
</svg>
