<svg xmlns="http://www.w3.org/2000/svg" width="24.492" height="30.183" viewBox="0 0 24.492 30.183">
  <g id="subscription" transform="translate(-0.501 0.001)">
    <path id="Path_142302" data-name="Path 142302" d="M12.773,4.608H16.29L14.958,5.942a.884.884,0,1,0,1.252,1.25L19.046,4.35a.886.886,0,0,0-.02-1.27L16.21.259a.884.884,0,1,0-1.252,1.25l1.328,1.331H12.735A12.26,12.26,0,0,0,2.141,21.191a.884.884,0,0,0,1.534-.879,10.492,10.492,0,0,1,9.1-15.7Zm0,0" transform="translate(0 0)"/>
    <path id="Path_142303" data-name="Path 142303" d="M114.163,145.434a.884.884,0,1,0-1.534.88,10.491,10.491,0,0,1-9.072,15.7h-3.543l1.332-1.334a.884.884,0,1,0-1.252-1.25l-2.837,2.841a.886.886,0,0,0,.021,1.271l2.815,2.82a.884.884,0,0,0,1.252-1.25l-1.328-1.331h3.55a12.259,12.259,0,0,0,10.6-18.352Zm0,0" transform="translate(-90.809 -136.443)"/>
    <path id="Path_142304" data-name="Path 142304" d="M150.883,154.537h3.537a.884.884,0,1,0,0-1.769h-1.769v-.884a.884.884,0,0,0-1.769,0v.884a2.653,2.653,0,1,0,0,5.306h1.768a.884.884,0,1,1,0,1.769h-3.537a.884.884,0,0,0,0,1.769h1.769v.884a.884.884,0,0,0,1.769,0v-.884a2.653,2.653,0,1,0,0-5.306h-1.768a.884.884,0,0,1,0-1.769Zm0,0" transform="translate(-139.02 -142.099)"/>
  </g>
</svg>
