<svg xmlns="http://www.w3.org/2000/svg" width="30.389" height="28.279" viewBox="0 0 30.389 28.279">
  <g id="seller_1" data-name="seller 1" transform="translate(0.749 0.75)">
    <path id="Path_142287" data-name="Path 142287" d="M104.048,42.5a4.784,4.784,0,1,1-4.784,4.784A4.787,4.787,0,0,1,104.048,42.5Zm6.746,13.5a7.481,7.481,0,1,1-2.755,5.8A7.539,7.539,0,0,1,110.794,55.994Zm3.731,9.463a1,1,0,0,0,1.989.028c.075-.019.148-.041.217-.066a2.239,2.239,0,0,0,1.588-2.269c0-1.208-.827-1.83-1.987-2.168-.4-.118-.845-.2-1.232-.333a1.708,1.708,0,0,1-.312-.132c-.031-.018-.072-.028-.072-.069,0-.3.238-.417.492-.452a2.316,2.316,0,0,1,1.542.369,1,1,0,0,0,1.142-1.636,4.206,4.206,0,0,0-1.377-.606,1,1,0,0,0-1.989-.021,2.455,2.455,0,0,0-1.349.885,2.378,2.378,0,0,0-.457,1.46c0,1.208.827,1.83,1.987,2.168.4.118.845.2,1.232.333a1.779,1.779,0,0,1,.312.132c.031.018.072.028.072.069,0,.3-.236.407-.487.441a2.409,2.409,0,0,1-1.56-.367,1,1,0,1,0-1.116,1.654A4.256,4.256,0,0,0,114.525,65.457Z" transform="translate(-94.113 -42.496)" fill="none" stroke="#051917" stroke-width="1.5" fill-rule="evenodd"/>
    <path id="Path_142288" data-name="Path 142288" d="M35.085,232.13c2.469,0,6.873,0,10.1,0a9.437,9.437,0,0,1-2.128-5.981c0-3.308,3.489-7.344,3.489-7.344a10.294,10.294,0,0,0-1.37-.325,17.854,17.854,0,0,0-4.115-.7,9.946,9.946,0,0,0-4.551.98c-3.707,2.788-4.477,5.223-4.418,10.51,0,.005,0,.011,0,.016A2.994,2.994,0,0,0,35.085,232.13Z" transform="translate(-32.091 -206.848)" fill="none" stroke="#051917" stroke-width="1.5"/>
  </g>
</svg>
