<svg xmlns="http://www.w3.org/2000/svg" xmlns:xlink="http://www.w3.org/1999/xlink" width="258.705" height="52" viewBox="0 0 258.705 52">
  <defs>
    <clipPath id="clip-path">
      <path id="Rectangle_23598" data-name="Rectangle 23598" d="M10,0H21a0,0,0,0,1,0,0V10A10,10,0,0,1,11,20H10A10,10,0,0,1,0,10v0A10,10,0,0,1,10,0Z" transform="translate(0.238 -0.064)"/>
    </clipPath>
    <clipPath id="clip-path-2">
      <rect id="Rectangle_23613" data-name="Rectangle 23613" width="11.525" height="11.525"/>
    </clipPath>
    <clipPath id="clip-path-3">
      <path id="Rectangle_23600" data-name="Rectangle 23600" d="M10.5,0h0A10.5,10.5,0,0,1,21,10.5v0A10.5,10.5,0,0,1,10.5,21H0a0,0,0,0,1,0,0V10.5A10.5,10.5,0,0,1,10.5,0Z" transform="translate(-0.064 0.239)"/>
    </clipPath>
    <clipPath id="clip-path-4">
      <rect id="Rectangle_23612" data-name="Rectangle 23612" width="11.525" height="11.525" transform="translate(0 0)"/>
    </clipPath>
    <clipPath id="clip-path-5">
      <path id="Rectangle_23604" data-name="Rectangle 23604" d="M10.5,0h0A10.5,10.5,0,0,1,21,10.5V21a0,0,0,0,1,0,0H10.5A10.5,10.5,0,0,1,0,10.5v0A10.5,10.5,0,0,1,10.5,0Z" transform="translate(0.237 0.24)"/>
    </clipPath>
    <clipPath id="clip-path-6">
      <rect id="Rectangle_23611" data-name="Rectangle 23611" width="11" height="11" transform="translate(-0.046 -0.047)"/>
    </clipPath>
    <clipPath id="clip-path-7">
      <rect id="Rectangle_23614" data-name="Rectangle 23614" width="12" height="12" transform="translate(-0.467 -0.468)"/>
    </clipPath>
  </defs>
  <g id="Logo" transform="translate(0.271 -0.32)">
    <g id="Group_82809" data-name="Group 82809" transform="translate(-0.271 0.319)">
      <path id="Rectangle_23597" data-name="Rectangle 23597" d="M13,0H26a0,0,0,0,1,0,0V13A13,13,0,0,1,13,26h0A13,13,0,0,1,0,13v0A13,13,0,0,1,13,0Z" transform="translate(0 26)" fill="#ffd960"/>
      <g id="Mask_Group_185" data-name="Mask Group 185" transform="translate(1.762 29.065)" clip-path="url(#clip-path)">
        <g id="take-away" transform="translate(4.694 4.098)">
          <g id="Mask_Group_191" data-name="Mask Group 191" transform="translate(0 0)" clip-path="url(#clip-path-2)">
            <g id="_x33_5_Cutlery" transform="translate(1.96 0)">
              <g id="Group_82810" data-name="Group 82810" transform="translate(0 0)">
                <path id="Path_142020" data-name="Path 142020" d="M4.708,2.69A1.825,1.825,0,0,1,4.01,4.2a1.013,1.013,0,0,0-.4.821V6.281a34.3,34.3,0,0,0,.432,4.075c0,.462-.17,1.145-.666,1.145-.531,0-.667-.683-.667-1.145A29.833,29.833,0,0,0,3.14,6.35V5.019a1.013,1.013,0,0,0-.4-.821,1.829,1.829,0,0,1-.7-1.507C2.041,1.566,2.695,0,3.375,0S4.708,1.566,4.708,2.69Z" transform="translate(-2.041 0)"/>
                <path id="Path_142021" data-name="Path 142021" d="M7.2,2.2a2.787,2.787,0,0,1-.212,1.54,2.879,2.879,0,0,0-.454,1.622V6.719c0,1.75.432,2.913.432,3.661,0,.462-.172,1.145-.667,1.145-.53,0-.667-.683-.667-1.145A30.738,30.738,0,0,0,6.062,6.8V5.282A3.092,3.092,0,0,0,5.585,3.7,2.9,2.9,0,0,1,5.4,2.191l.174-2.1A.1.1,0,0,1,5.668,0h.017a.1.1,0,0,1,.1.1v2.4a.109.109,0,0,0,.218,0V.1a.1.1,0,0,1,.1-.1.1.1,0,0,1,.1.1v2.4a.109.109,0,0,0,.218,0V.1A.1.1,0,1,1,6.6.1v2.4a.109.109,0,0,0,.218,0V.1a.1.1,0,0,1,.1-.1h.016a.1.1,0,0,1,.1.088Z" transform="translate(-2.173 0)"/>
                <path id="Path_142022" data-name="Path 142022" d="M9.886,5.636a.771.771,0,0,1-.232.533.762.762,0,0,1-.537.219.247.247,0,0,0-.248.246V8.069c0,.445.262,1.861.369,2.869a.512.512,0,1,1-1.021.053V.225A.223.223,0,0,1,8.568.042c1,.742,1.365,3.819,1.318,5.595Z" transform="translate(-2.286 0)"/>
              </g>
            </g>
          </g>
        </g>
      </g>
      <path id="Rectangle_23599" data-name="Rectangle 23599" d="M12.5,0h0A12.5,12.5,0,0,1,25,12.5v0A12.5,12.5,0,0,1,12.5,25H0a0,0,0,0,1,0,0V12.5A12.5,12.5,0,0,1,12.5,0Z" transform="translate(27 0)" fill="#b9fba4"/>
      <g id="Mask_Group_186" data-name="Mask Group 186" transform="translate(29.063 1.762)" clip-path="url(#clip-path-3)">
        <g id="Mask_Group_190" data-name="Mask Group 190" transform="translate(4.637 5.259)" clip-path="url(#clip-path-4)">
          <g id="Group_2" data-name="Group 2" transform="translate(0.436 0.312)">
            <path id="Path_139877" data-name="Path 139877" d="M37.85,91.33a1.1,1.1,0,1,0-1.1,1.1A1.1,1.1,0,0,0,37.85,91.33Zm-1.808,0a.709.709,0,1,1,.709.709A.709.709,0,0,1,36.042,91.33Zm0,0" transform="translate(-33.085 -81.527)"/>
            <path id="Path_139878" data-name="Path 139878" d="M78.932,92.427a1.1,1.1,0,1,0-1.1-1.1,1.1,1.1,0,0,0,1.1,1.1Zm0-1.808a.709.709,0,1,1-.709.709.709.709,0,0,1,.709-.709Zm0,0" transform="translate(-71.197 -81.527)"/>
            <path id="Path_139879" data-name="Path 139879" d="M1.1.39h.316a.79.79,0,0,1,.784.667L3.145,7A1.178,1.178,0,0,0,4.314,8h5.813a.195.195,0,0,0,0-.39H4.314a.79.79,0,0,1-.784-.667L3.37,5.932H9.327a1.185,1.185,0,0,0,1.118-.8l1.105-3.19a.195.195,0,0,0-.184-.259H2.7L2.589,1a1.178,1.178,0,0,0-1.17-1H1.1a.195.195,0,0,0,0,.39Zm9.99,1.688L10.077,5.008a.794.794,0,0,1-.75.534H3.308L2.759,2.077Zm0,0" transform="translate(-0.908 0)"/>
            <g id="Path_142003" data-name="Path 142003" transform="translate(2.779 8.913)">
              <path id="Path_142016" data-name="Path 142016" d="M.692,1.352c-.275,0-.623-.214-.623-.346A.708.708,0,0,1,.323.634.835.835,0,0,1,.758.393.378.378,0,0,1,1.135.77C1.135,1.022.856,1.352.692,1.352Z" transform="translate(0.309 -0.016)"/>
              <path id="Path_142017" data-name="Path 142017" d="M.742,0A.755.755,0,0,1,1.5.755a1.013,1.013,0,0,1-.821.959c-.417,0-1-.306-1-.723A1.309,1.309,0,0,1,.742,0Z" transform="translate(0.324 0)"/>
            </g>
            <g id="Path_142004" data-name="Path 142004" transform="translate(6.828 8.913)">
              <path id="Path_142018" data-name="Path 142018" d="M.684,1.352A1.188,1.188,0,0,1-.122.959,1.385,1.385,0,0,1,.75.393.378.378,0,0,1,1.128.77C1.128,1.022.849,1.352.684,1.352Z" transform="translate(0.5 -0.016)"/>
              <path id="Path_142019" data-name="Path 142019" d="M.733.758A1.081,1.081,0,0,0,.439.9.972.972,0,0,0,.614.953a.458.458,0,0,0,.119-.2M.735,0a.755.755,0,0,1,.755.755,1.013,1.013,0,0,1-.821.959c-.417,0-1.184-.353-1.184-.77S.318,0,.735,0Z" transform="translate(0.516 0)"/>
            </g>
            <path id="Path_142002" data-name="Path 142002" d="M5.261,5.8h7.98L12.1,9.037H5.993Z" transform="translate(-3.33 -3.667)" stroke="#000" stroke-width="0.786"/>
          </g>
        </g>
      </g>
      <path id="Rectangle_23601" data-name="Rectangle 23601" d="M0,0H12.5A12.5,12.5,0,0,1,25,12.5v1A12.5,12.5,0,0,1,12.5,26h0A12.5,12.5,0,0,1,0,13.5V0A0,0,0,0,1,0,0Z" transform="translate(27 26)" fill="#8cb4fc"/>
      <path id="Rectangle_23603" data-name="Rectangle 23603" d="M12.5,0h1A12.5,12.5,0,0,1,26,12.5V25a0,0,0,0,1,0,0H12.5A12.5,12.5,0,0,1,0,12.5v0A12.5,12.5,0,0,1,12.5,0Z" transform="translate(0 0)" fill="#ffa2ba"/>
      <g id="Mask_Group_188" data-name="Mask Group 188" transform="translate(1.762 1.761)" clip-path="url(#clip-path-5)">
        <g id="Mask_Group_189" data-name="Mask Group 189" transform="translate(5.284 5.285)" clip-path="url(#clip-path-6)">
          <g id="Group_1" data-name="Group 1" transform="translate(-0.237 0.144)">
            <path id="Path_142000" data-name="Path 142000" d="M4.658,3.1l-.045-.039A2.349,2.349,0,0,0,1.735.16L3.066,1.491,2.717,2.8l-1.3.349L.081,1.814a2.351,2.351,0,0,0,3,2.847l.007.007,5.477,5.476a1.11,1.11,0,1,0,1.569-1.57ZM9.446,9.96a.423.423,0,1,1,.3-.123.423.423,0,0,1-.3.123Z" transform="translate(0 -0.078)"/>
            <g id="fountain-pen_2_" data-name="fountain-pen (2)" transform="translate(1.127 0)">
              <g id="_44_Fountain_pen" data-name="44 Fountain pen" transform="translate(1.189 1.117)">
                <path id="Path_142025" data-name="Path 142025" d="M35.583,10.628a.363.363,0,0,0,.031-.537l-.76-.76a.358.358,0,0,0-.507,0l-2.786,2.786,1.266,1.266L35.2,11.008a.537.537,0,0,1,0,.76l-1.325,1.325a.179.179,0,0,0-.049.162l.042.211a.179.179,0,0,0,.3.091l1.41-1.41a1.075,1.075,0,0,0,0-1.52Z" transform="translate(-27.634 -9.226)"/>
                <path id="Path_142026" data-name="Path 142026" d="M0,0H5.015V1.433H0Z" transform="translate(0 7.07) rotate(-45)"/>
              </g>
              <g id="Layer_32" data-name="Layer 32" transform="translate(0 0)">
                <path id="Path_142027" data-name="Path 142027" d="M13.177,3.2a.719.719,0,0,0-1.013,0l-.444.444a.464.464,0,0,0-.482.294.536.536,0,0,0-.467.149L7.984,6.872a.212.212,0,0,1-.027.034l-.369.615-3.53,3.53a.189.189,0,0,0,.033.286.613.613,0,0,1-.413.168.179.179,0,0,0-.17.122l-.5,1.51a.182.182,0,0,0,.233.233l1.51-.5a.18.18,0,0,0,.122-.169.613.613,0,0,1,.168-.414.189.189,0,0,0,.286.033l3.53-3.53.614-.369c.006,0,.008-.009.014-.013L9.5,8.392l2.214-2.213a.357.357,0,0,1-.091.345L10.3,7.848a.358.358,0,0,0-.1.324l.042.211a.36.36,0,0,0,.6.183l1.41-1.41a1.255,1.255,0,0,0,.107-1.649.538.538,0,0,0,.072-.369.468.468,0,0,0,.3-.485l.44-.44a.719.719,0,0,0,0-1.013ZM4.524,12.565l-.689.23.477-.477c.167-.162-.091-.42-.253-.253l-.477.477.23-.689a.9.9,0,0,0,.536-.259l.436.436A.9.9,0,0,0,4.524,12.565Zm7.2-8.542.633.633a.09.09,0,1,1-.127.126l-.634-.634a.09.09,0,0,1,.127-.126Zm-.7.317a.179.179,0,0,1,.253,0l.76.76a.18.18,0,0,1,0,.253l-2.66,2.66L8.364,7ZM5.2,11.938l-.76-.76L7.731,7.885l.76.76ZM8.772,8.42,7.956,7.6l.19-.317.942.942ZM12.006,6.9,10.6,8.313,10.554,8.1l1.325-1.325a.718.718,0,0,0,.111-.87l.13-.13A.9.9,0,0,1,12.006,6.9Zm.917-2.944-.38.38-.507-.507.38-.38a.358.358,0,1,1,.507.507Z" transform="translate(-2.995 -2.991)"/>
              </g>
            </g>
          </g>
        </g>
      </g>
      <g id="Mask_Group_192" data-name="Mask Group 192" transform="translate(33.467 33.469)" clip-path="url(#clip-path-7)">
        <path id="Path_142012" data-name="Path 142012" d="M42.133,34.568V37.86H38.84a.412.412,0,0,0-.412.412v3.292a.412.412,0,0,0,.412.412h3.292v3.292a.412.412,0,0,0,.412.412h3.292a.412.412,0,0,0,.412-.412V41.977h3.292a.412.412,0,0,0,.412-.412V38.272a.412.412,0,0,0-.412-.412H46.249V34.568a.412.412,0,0,0-.412-.412H42.545A.412.412,0,0,0,42.133,34.568Z" transform="translate(-38.195 -34.11)"/>
      </g>
    </g>
    <path id="Path_139885" data-name="Path 139885" d="M2.7-162.7h3.57v-1.449q0-4.915,2.07-7.114a7.847,7.847,0,0,1,6-2.2,20.62,20.62,0,0,1,6.881.983L19.925-167.1a11.432,11.432,0,0,0-2.1-.543,13.344,13.344,0,0,0-1.889-.129,3.559,3.559,0,0,0-1.63.31,1.909,1.909,0,0,0-.88.957,5.006,5.006,0,0,0-.362,1.6q-.078.957-.078,2.2h5.691v5.691H12.991v20.179H6.265v-20.179H2.7Zm30.889,6.312a8.763,8.763,0,0,0-2.9-.569A4.742,4.742,0,0,0,27.66-156a4.61,4.61,0,0,0-1.63,2.458v16.712H19.3V-162.7H24.53l.776,3.415h.207a7.054,7.054,0,0,1,2.38-2.949,6.043,6.043,0,0,1,3.518-1.035,9.786,9.786,0,0,1,3.053.569Zm1.345-4.812a22.132,22.132,0,0,1,4.915-1.475,31.68,31.68,0,0,1,5.95-.543,13.511,13.511,0,0,1,4.5.647,6.832,6.832,0,0,1,2.872,1.837,6.846,6.846,0,0,1,1.5,2.846,14.526,14.526,0,0,1,.44,3.725q0,2.277-.155,4.579t-.181,4.527q-.026,2.225.129,4.32a16.27,16.27,0,0,0,.776,3.958H50.193l-1.087-3.57h-.259a9.208,9.208,0,0,1-2.872,2.768,8.712,8.712,0,0,1-4.734,1.164,9.23,9.23,0,0,1-3.26-.543,7.056,7.056,0,0,1-2.484-1.552,7.071,7.071,0,0,1-1.6-2.38,7.962,7.962,0,0,1-.569-3.079,7.2,7.2,0,0,1,1.061-4.01,7.671,7.671,0,0,1,3.053-2.639,15.165,15.165,0,0,1,4.76-1.4,33.731,33.731,0,0,1,6.183-.233,6.723,6.723,0,0,0-.414-4.165q-.776-1.268-3.467-1.268a23.635,23.635,0,0,0-4.269.414,15.607,15.607,0,0,0-3.7,1.087Zm8.537,19.247a5.172,5.172,0,0,0,3.208-.905,6.317,6.317,0,0,0,1.759-1.94v-3.363a18.5,18.5,0,0,0-3.079-.052,11.231,11.231,0,0,0-2.613.466,4.392,4.392,0,0,0-1.811,1.035A2.313,2.313,0,0,0,40.259-145a2.938,2.938,0,0,0,.854,2.251A3.3,3.3,0,0,0,43.467-141.95ZM74.2-136.828v-14.694a8.671,8.671,0,0,0-.905-4.553,3.386,3.386,0,0,0-3.079-1.4,4.847,4.847,0,0,0-3.234,1.112,6.179,6.179,0,0,0-1.889,2.768v16.764H58.368V-162.7H63.7l.776,3.415h.207a11.153,11.153,0,0,1,3.156-2.9,9.358,9.358,0,0,1,5.071-1.242,10.446,10.446,0,0,1,3.415.517,5.813,5.813,0,0,1,2.535,1.707,7.758,7.758,0,0,1,1.552,3.234,20.91,20.91,0,0,1,.517,5.045v16.091Zm18.523-10.71H90.913v10.71H84.186v-36.218h6.726v21.369l1.552-.724,5.9-10.3h7.4l-6.209,9.831L96.915-150.9l2.846,2.018,6.985,12.056H99.036Zm13.142,5.019,10.193-12.262,2.639-2.225H105.866V-162.7h20.282v5.691l-10.089,12.469-2.587,2.018h12.676v5.691H105.866Zm21.007-7.244q0-6.571,3.208-10.115t9-3.544a13.5,13.5,0,0,1,5.381.983,10.053,10.053,0,0,1,3.777,2.768,11.839,11.839,0,0,1,2.251,4.32,19.639,19.639,0,0,1,.75,5.588q0,6.571-3.182,10.115t-8.977,3.544a13.5,13.5,0,0,1-5.381-.983,10.284,10.284,0,0,1-3.8-2.768,11.624,11.624,0,0,1-2.277-4.32A19.639,19.639,0,0,1,126.872-149.763Zm6.933,0a15.067,15.067,0,0,0,.31,3.156,8.8,8.8,0,0,0,.931,2.535,4.494,4.494,0,0,0,1.63,1.682,4.653,4.653,0,0,0,2.406.6,4.422,4.422,0,0,0,3.932-1.914q1.293-1.914,1.294-6.054a12.105,12.105,0,0,0-1.19-5.769,4.213,4.213,0,0,0-4.036-2.2,4.577,4.577,0,0,0-3.881,1.863Q133.806-154.006,133.806-149.763Zm35.546,12.935v-14.694a8.671,8.671,0,0,0-.905-4.553,3.386,3.386,0,0,0-3.079-1.4,4.847,4.847,0,0,0-3.234,1.112,6.179,6.179,0,0,0-1.889,2.768v16.764h-6.726V-162.7h5.329l.776,3.415h.207a11.153,11.153,0,0,1,3.156-2.9,9.358,9.358,0,0,1,5.071-1.242,10.447,10.447,0,0,1,3.415.517,5.813,5.813,0,0,1,2.535,1.707,7.758,7.758,0,0,1,1.552,3.234,20.909,20.909,0,0,1,.517,5.045v16.091Zm30.682-2.225a13.164,13.164,0,0,1-4.217,2.1,18.46,18.46,0,0,1-5.666.854q-6.261,0-9.158-3.648t-2.9-10.012q0-6.83,3.26-10.245t9.158-3.415a14.238,14.238,0,0,1,3.829.517,8.911,8.911,0,0,1,3.311,1.707,8.4,8.4,0,0,1,2.328,3.208,12.58,12.58,0,0,1,.88,5.019,22.621,22.621,0,0,1-.129,2.328q-.129,1.242-.387,2.587H184.873a7.6,7.6,0,0,0,1.676,4.915q1.522,1.656,4.924,1.656a10.463,10.463,0,0,0,3.79-.647,10.474,10.474,0,0,0,2.552-1.319Zm-9.6-18.989a4.674,4.674,0,0,0-3.886,1.578,7.827,7.827,0,0,0-1.518,4.217H194.6a6.537,6.537,0,0,0-.848-4.294A3.777,3.777,0,0,0,190.432-158.041Z" transform="translate(57.572 180.156)"/>
  </g>
</svg>
