<svg width="26" height="29" viewBox="0 0 26 29" fill="none" xmlns="http://www.w3.org/2000/svg">
<g clip-path="url(#clip0_1_119)">
<path d="M24.785 23.439H6.085C6.03436 23.4375 5.9854 23.4204 5.94473 23.3902C5.90405 23.36 5.8736 23.3181 5.85748 23.27C5.84136 23.222 5.84034 23.1702 5.85456 23.1215C5.86878 23.0729 5.89755 23.0298 5.937 22.998L8.537 20.998H23.409C23.9209 20.9935 24.4111 20.7901 24.7759 20.4309C25.1407 20.0717 25.3516 19.5848 25.364 19.073L25.531 10.495C25.5391 10.0203 25.3746 9.55885 25.0683 9.1962C24.7619 8.83355 24.3344 8.59435 23.865 8.523C23.6412 8.48945 23.4132 8.5462 23.2312 8.68076C23.0491 8.81531 22.9281 9.01666 22.8945 9.24051C22.861 9.46435 22.9177 9.69235 23.0523 9.87435C23.1868 10.0564 23.3882 10.1775 23.612 10.211C23.6707 10.2197 23.7243 10.2495 23.7627 10.2947C23.8012 10.34 23.8219 10.3976 23.821 10.457L23.654 19.04C23.6525 19.1049 23.6264 19.1668 23.5808 19.213C23.5353 19.2593 23.4739 19.2865 23.409 19.289H8.924L6.224 7.62301L7.594 7.82301C7.8127 7.84504 8.0315 7.78209 8.20506 7.6472C8.37862 7.51232 8.49364 7.31584 8.52629 7.09847C8.55894 6.88109 8.50672 6.65949 8.38045 6.47957C8.25417 6.29965 8.06353 6.1752 7.848 6.132L5.797 5.825L5.013 2.777C4.96555 2.59391 4.85832 2.4319 4.70832 2.31668C4.55832 2.20146 4.37414 2.13963 4.185 2.141H0.855001C0.740327 2.13708 0.626036 2.15628 0.518938 2.19746C0.41184 2.23863 0.314125 2.30094 0.231615 2.38068C0.149105 2.46041 0.0834877 2.55594 0.0386734 2.66157C-0.00614092 2.7672 -0.0292358 2.88076 -0.0292358 2.9955C-0.0292358 3.11024 -0.00614092 3.22381 0.0386734 3.32944C0.0834877 3.43507 0.149105 3.53059 0.231615 3.61033C0.314125 3.69006 0.41184 3.75238 0.518938 3.79355C0.626036 3.83473 0.740327 3.85393 0.855001 3.85H3.521L7.285 19.784L4.885 21.632C4.56916 21.8865 4.33925 22.232 4.22645 22.6216C4.11364 23.0112 4.12341 23.4261 4.25443 23.81C4.38544 24.1939 4.63137 24.5282 4.95883 24.7675C5.2863 25.0069 5.67947 25.1397 6.085 25.148H8.33C8.22558 25.4229 8.17336 25.7149 8.176 26.009C8.176 26.6938 8.44803 27.3505 8.93225 27.8348C9.41647 28.319 10.0732 28.591 10.758 28.591C11.4428 28.591 12.0995 28.319 12.5838 27.8348C13.068 27.3505 13.34 26.6938 13.34 26.009C13.3426 25.7143 13.2904 25.4216 13.186 25.146H17.856C17.7516 25.4209 17.6994 25.7129 17.702 26.007C17.702 26.6918 17.974 27.3485 18.4583 27.8328C18.9425 28.317 19.5992 28.589 20.284 28.589C20.9688 28.589 21.6255 28.317 22.1097 27.8328C22.594 27.3485 22.866 26.6918 22.866 26.007C22.8686 25.7123 22.8164 25.4196 22.712 25.144H24.785C24.8997 25.1479 25.014 25.1287 25.1211 25.0876C25.2282 25.0464 25.3259 24.9841 25.4084 24.9043C25.4909 24.8246 25.5565 24.7291 25.6013 24.6234C25.6461 24.5178 25.6692 24.4042 25.6692 24.2895C25.6692 24.1748 25.6461 24.0612 25.6013 23.9556C25.5565 23.8499 25.4909 23.7544 25.4084 23.6747C25.3259 23.5949 25.2282 23.5326 25.1211 23.4915C25.014 23.4503 24.8997 23.4311 24.785 23.435V23.439ZM10.754 26.854C10.5857 26.8507 10.4221 26.7977 10.2837 26.7017C10.1454 26.6058 10.0384 26.4711 9.97631 26.3146C9.91419 26.1581 9.89967 25.9867 9.93456 25.822C9.96944 25.6573 10.0522 25.5066 10.1724 25.3887C10.2926 25.2708 10.445 25.191 10.6104 25.1594C10.7757 25.1278 10.9468 25.1457 11.102 25.2108C11.2572 25.276 11.3898 25.3856 11.483 25.5258C11.5762 25.666 11.626 25.8306 11.626 25.999C11.6236 26.228 11.5304 26.4466 11.3669 26.607C11.2034 26.7673 10.983 26.8561 10.754 26.854ZM20.28 26.854C20.1117 26.8507 19.9481 26.7977 19.8097 26.7017C19.6714 26.6058 19.5644 26.4711 19.5023 26.3146C19.4402 26.1581 19.4257 25.9867 19.4606 25.822C19.4954 25.6573 19.5782 25.5066 19.6984 25.3887C19.8186 25.2708 19.971 25.191 20.1364 25.1594C20.3017 25.1278 20.4728 25.1457 20.628 25.2108C20.7832 25.276 20.9158 25.3856 21.009 25.5258C21.1022 25.666 21.152 25.8306 21.152 25.999C21.1508 26.1125 21.1273 26.2246 21.0828 26.329C21.0383 26.4333 20.9737 26.5279 20.8926 26.6073C20.8115 26.6867 20.7156 26.7494 20.6103 26.7917C20.5051 26.834 20.3935 26.8552 20.28 26.854Z" fill="white"/>
<path d="M15.639 12.386C14.415 12.382 13.2196 12.0155 12.2038 11.3326C11.188 10.6497 10.3974 9.6811 9.93169 8.54913C9.46602 7.41717 9.34624 6.1726 9.58745 4.97259C9.82867 3.77259 10.42 2.67097 11.2869 1.80687C12.1538 0.94276 13.2574 0.354917 14.4582 0.117575C15.6589 -0.119766 16.9031 0.00403789 18.0336 0.473353C19.164 0.942669 20.1301 1.73645 20.8097 2.75444C21.4893 3.77244 21.852 4.96899 21.852 6.193C21.8478 7.83765 21.1912 9.41343 20.0264 10.5745C18.8615 11.7356 17.2837 12.3871 15.639 12.386ZM15.639 1.709C14.7528 1.71216 13.8875 1.97783 13.1522 2.47246C12.4169 2.96708 11.8447 3.66849 11.5078 4.48811C11.1708 5.30772 11.0843 6.2088 11.2591 7.07755C11.4339 7.94631 11.8622 8.74378 12.49 9.36928C13.1177 9.99478 13.9167 10.4203 14.7861 10.592C15.6554 10.7637 16.5562 10.674 17.3746 10.3341C18.193 9.99428 18.8924 9.41955 19.3844 8.68251C19.8764 7.94547 20.139 7.07917 20.139 6.193C20.1348 5.0023 19.6588 3.86181 18.8153 3.02136C17.9719 2.1809 16.8297 1.70899 15.639 1.709Z" fill="white"/>
<path d="M14.124 8.36699L12.751 6.73699C12.6139 6.56256 12.5501 6.34168 12.5728 6.12102C12.5956 5.90036 12.7032 5.69718 12.873 5.5544C13.0428 5.41162 13.2614 5.34042 13.4827 5.35583C13.704 5.37124 13.9106 5.47206 14.059 5.637L14.814 6.537L17.162 4.042C17.319 3.88464 17.5311 3.79461 17.7533 3.79099C17.9756 3.78737 18.1905 3.87044 18.3525 4.02259C18.5146 4.17475 18.611 4.38402 18.6213 4.60605C18.6317 4.82809 18.5552 5.04542 18.408 5.21199L15.402 8.40599C15.222 8.55906 14.9916 8.63983 14.7555 8.63262C14.5193 8.62542 14.2943 8.53075 14.124 8.36699Z" fill="white"/>
</g>
<defs>
<clipPath id="clip0_1_119">
<rect width="25.635" height="28.567" fill="white"/>
</clipPath>
</defs>
</svg>
