<svg width="23" height="29" viewBox="0 0 23 29" fill="none" xmlns="http://www.w3.org/2000/svg">
<g clip-path="url(#clip0_1_127)">
<path d="M19.872 3.80001H17.25V2.62401C17.25 2.24401 16.836 2.07201 16.457 2.07201H14.421C14.2023 1.44078 13.7848 0.897552 13.231 0.523926C12.6772 0.1503 12.0172 -0.0335463 11.35 5.37606e-06C10.6849 -0.0249783 10.0291 0.162075 9.47729 0.534153C8.92547 0.90623 8.50619 1.44407 8.28 2.07001H6.28C5.901 2.07001 5.521 2.24201 5.521 2.62201V3.80001H2.898C2.14933 3.80759 1.43191 4.1012 0.892731 4.62067C0.353553 5.14014 0.0334452 5.84614 -0.0019989 6.59401V26.36C0.0378436 27.0912 0.364974 27.777 0.908142 28.2681C1.45131 28.7592 2.16652 29.0158 2.898 28.982H19.872C20.6035 29.0158 21.3187 28.7592 21.8619 28.2681C22.405 27.777 22.7322 27.0912 22.772 26.36V6.59201C22.7361 5.84449 22.4157 5.13899 21.8766 4.61994C21.3375 4.10089 20.6203 3.80756 19.872 3.80001ZM6.9 3.45201H8.8C8.96145 3.43243 9.11234 3.36152 9.23044 3.24972C9.34855 3.13792 9.42761 2.99114 9.456 2.83101C9.55537 2.39804 9.79606 2.01049 10.1401 1.72947C10.4841 1.44845 10.9119 1.28996 11.356 1.27901C11.7943 1.29354 12.2151 1.45418 12.5516 1.7354C12.8881 2.01662 13.1209 2.40226 13.213 2.83101C13.2431 2.99628 13.3271 3.14691 13.452 3.25929C13.5769 3.37167 13.7355 3.43945 13.903 3.45201H15.87V6.21201H6.9V3.45201ZM21.39 26.36C21.3496 26.7242 21.168 27.0581 20.8842 27.29C20.6004 27.5218 20.237 27.6331 19.872 27.6H2.898C2.53272 27.6331 2.16904 27.5215 1.88516 27.2893C1.60129 27.057 1.4199 26.7226 1.38 26.358V6.59201C1.41399 6.21055 1.58781 5.85514 1.86804 5.59411C2.14826 5.33309 2.5151 5.18488 2.898 5.17801H5.52V6.93701C5.53754 7.12311 5.62629 7.29524 5.76772 7.41748C5.90915 7.53971 6.09232 7.6026 6.279 7.59301H16.456C16.6464 7.60327 16.8337 7.54149 16.9807 7.41994C17.1276 7.29838 17.2234 7.12598 17.249 6.93701V5.17701H19.871C20.2538 5.1841 20.6206 5.33238 20.9007 5.59336C21.1809 5.85435 21.3548 6.20964 21.389 6.59101L21.39 26.36Z" fill="white"/>
<path d="M8.729 15.424C8.60452 15.2929 8.43359 15.216 8.25294 15.2096C8.0723 15.2032 7.89637 15.268 7.76299 15.39L5.55499 17.49L4.62399 16.524C4.49952 16.3929 4.32858 16.3159 4.14794 16.3096C3.9673 16.3032 3.79138 16.368 3.658 16.49C3.52938 16.6247 3.45761 16.8038 3.45761 16.99C3.45761 17.1762 3.52938 17.3553 3.658 17.49L5.076 18.943C5.13648 19.0107 5.21107 19.0643 5.29453 19.1001C5.37798 19.1359 5.46825 19.1529 5.559 19.15C5.741 19.1474 5.9146 19.073 6.042 18.943L8.73299 16.39C8.79647 16.3319 8.84786 16.2618 8.88422 16.1837C8.92059 16.1057 8.94122 16.0213 8.94494 15.9353C8.94865 15.8493 8.93538 15.7634 8.90588 15.6825C8.87637 15.6017 8.83122 15.5274 8.77299 15.464C8.75599 15.449 8.743 15.436 8.729 15.424Z" fill="white"/>
<path d="M18.63 16.907H10.695C10.512 16.907 10.3365 16.9797 10.2071 17.1091C10.0777 17.2385 10.005 17.414 10.005 17.597C10.005 17.78 10.0777 17.9555 10.2071 18.0849C10.3365 18.2143 10.512 18.287 10.695 18.287H18.63C18.813 18.287 18.9885 18.2143 19.1179 18.0849C19.2473 17.9555 19.32 17.78 19.32 17.597C19.32 17.414 19.2473 17.2385 19.1179 17.1091C18.9885 16.9797 18.813 16.907 18.63 16.907Z" fill="white"/>
<path d="M8.729 9.90401C8.60452 9.77294 8.43359 9.69595 8.25294 9.68959C8.0723 9.68323 7.89637 9.74802 7.76299 9.87001L5.55499 11.97L4.62399 11.004C4.49952 10.8729 4.32858 10.796 4.14794 10.7896C3.9673 10.7832 3.79138 10.848 3.658 10.97C3.52938 11.1047 3.45761 11.2838 3.45761 11.47C3.45761 11.6563 3.52938 11.8353 3.658 11.97L5.076 13.423C5.13648 13.4907 5.21107 13.5443 5.29453 13.5801C5.37798 13.6159 5.46825 13.6329 5.559 13.63C5.741 13.6274 5.9146 13.553 6.042 13.423L8.73299 10.87C8.79647 10.8119 8.84786 10.7418 8.88422 10.6638C8.92059 10.5857 8.94122 10.5013 8.94494 10.4153C8.94865 10.3293 8.93538 10.2434 8.90588 10.1625C8.87637 10.0817 8.83122 10.0074 8.77299 9.94402C8.75599 9.92902 8.743 9.91601 8.729 9.90401Z" fill="white"/>
<path d="M18.63 11.387H10.695C10.6044 11.387 10.5147 11.4049 10.431 11.4395C10.3472 11.4742 10.2712 11.525 10.2071 11.5891C10.143 11.6532 10.0922 11.7292 10.0575 11.813C10.0228 11.8967 10.005 11.9864 10.005 12.077C10.005 12.1676 10.0228 12.2573 10.0575 12.3411C10.0922 12.4248 10.143 12.5008 10.2071 12.5649C10.2712 12.629 10.3472 12.6798 10.431 12.7145C10.5147 12.7492 10.6044 12.767 10.695 12.767H18.63C18.813 12.767 18.9885 12.6943 19.1179 12.5649C19.2473 12.4355 19.32 12.26 19.32 12.077C19.32 11.894 19.2473 11.7185 19.1179 11.5891C18.9885 11.4597 18.813 11.387 18.63 11.387Z" fill="white"/>
<path d="M8.729 20.944C8.60452 20.8129 8.43359 20.736 8.25294 20.7296C8.0723 20.7232 7.89637 20.788 7.76299 20.91L5.55499 23.01L4.62399 22.044C4.49952 21.9129 4.32858 21.836 4.14794 21.8296C3.9673 21.8232 3.79138 21.888 3.658 22.01C3.52938 22.1447 3.45761 22.3238 3.45761 22.51C3.45761 22.6962 3.52938 22.8753 3.658 23.01L5.076 24.463C5.13648 24.5307 5.21107 24.5843 5.29453 24.6201C5.37798 24.6559 5.46825 24.6729 5.559 24.67C5.741 24.6674 5.9146 24.593 6.042 24.463L8.73299 21.91C8.79647 21.8519 8.84786 21.7818 8.88422 21.7038C8.92059 21.6257 8.94122 21.5413 8.94494 21.4553C8.94865 21.3693 8.93538 21.2834 8.90588 21.2025C8.87637 21.1217 8.83122 21.0474 8.77299 20.984C8.75599 20.97 8.743 20.957 8.729 20.944Z" fill="white"/>
<path d="M18.63 22.427H10.695C10.512 22.427 10.3365 22.4997 10.2071 22.6291C10.0777 22.7585 10.005 22.934 10.005 23.117C10.005 23.3 10.0777 23.4755 10.2071 23.6049C10.3365 23.7343 10.512 23.807 10.695 23.807H18.63C18.813 23.807 18.9885 23.7343 19.1179 23.6049C19.2473 23.4755 19.32 23.3 19.32 23.117C19.32 22.934 19.2473 22.7585 19.1179 22.6291C18.9885 22.4997 18.813 22.427 18.63 22.427Z" fill="white"/>
</g>
<defs>
<clipPath id="clip0_1_127">
<rect width="22.77" height="28.982" fill="white"/>
</clipPath>
</defs>
</svg>
