<svg width="29" height="29" viewBox="0 0 29 29" fill="none" xmlns="http://www.w3.org/2000/svg">
<g clip-path="url(#clip0_1_138)">
<path d="M11.145 9.639H2.108C1.54917 9.63821 1.01345 9.41586 0.618295 9.0207C0.223141 8.62555 0.00079361 8.08983 0 7.531L0 2.109C0.000529049 1.54999 0.222759 1.01402 0.617943 0.618649C1.01313 0.223279 1.54899 0.000794169 2.108 0L11.145 0C11.704 0.000529049 12.24 0.222759 12.6354 0.617943C13.0307 1.01313 13.2532 1.54899 13.254 2.108V7.531C13.2532 8.09001 13.0307 8.62587 12.6354 9.02106C12.24 9.41624 11.704 9.63847 11.145 9.639ZM2.108 1.807C2.02844 1.807 1.95213 1.83861 1.89587 1.89487C1.83961 1.95113 1.808 2.02744 1.808 2.107V7.531C1.808 7.61057 1.83961 7.68687 1.89587 7.74313C1.95213 7.79939 2.02844 7.831 2.108 7.831H11.145C11.2246 7.831 11.3009 7.79939 11.3571 7.74313C11.4134 7.68687 11.445 7.61057 11.445 7.531V2.109C11.445 2.02944 11.4134 1.95313 11.3571 1.89687C11.3009 1.84061 11.2246 1.809 11.145 1.809L2.108 1.807Z" fill="white"/>
<path d="M11.145 28.917H2.108C1.54917 28.9162 1.01345 28.6939 0.618295 28.2987C0.223141 27.9036 0.00079361 27.3678 0 26.809L0 14.158C0.000529049 13.599 0.222759 13.063 0.617943 12.6676C1.01313 12.2723 1.54899 12.0498 2.108 12.049H11.145C11.7042 12.0495 12.2403 12.2719 12.6357 12.6673C13.0311 13.0627 13.2535 13.5988 13.254 14.158V26.809C13.2532 27.368 13.0307 27.9039 12.6354 28.2991C12.24 28.6942 11.704 28.9165 11.145 28.917ZM2.108 13.856C2.02844 13.856 1.95213 13.8876 1.89587 13.9439C1.83961 14.0001 1.808 14.0764 1.808 14.156V26.807C1.808 26.8866 1.83961 26.9629 1.89587 27.0191C1.95213 27.0754 2.02844 27.107 2.108 27.107H11.145C11.2246 27.107 11.3009 27.0754 11.3571 27.0191C11.4134 26.9629 11.445 26.8866 11.445 26.807V14.158C11.445 14.0784 11.4134 14.0021 11.3571 13.9459C11.3009 13.8896 11.2246 13.858 11.145 13.858L2.108 13.856Z" fill="white"/>
<path d="M26.809 28.917H17.772C17.213 28.9165 16.677 28.6942 16.2816 28.2991C15.8863 27.9039 15.6638 27.368 15.663 26.809V21.387C15.6635 20.8278 15.8859 20.2917 16.2813 19.8963C16.6767 19.5009 17.2128 19.2785 17.772 19.278H26.809C27.368 19.2788 27.9039 19.5013 28.299 19.8967C28.6942 20.292 28.9165 20.828 28.917 21.387V26.809C28.9162 27.3678 28.6939 27.9035 28.2987 28.2987C27.9036 28.6938 27.3678 28.9162 26.809 28.917ZM17.772 21.085C17.6924 21.085 17.6161 21.1166 17.5599 21.1729C17.5036 21.2291 17.472 21.3054 17.472 21.385V26.807C17.472 26.8464 17.4798 26.8854 17.4948 26.9218C17.5099 26.9582 17.532 26.9913 17.5599 27.0191C17.5877 27.047 17.6208 27.0691 17.6572 27.0842C17.6936 27.0992 17.7326 27.107 17.772 27.107H26.809C26.8484 27.107 26.8874 27.0992 26.9238 27.0842C26.9602 27.0691 26.9933 27.047 27.0211 27.0191C27.049 26.9913 27.0711 26.9582 27.0862 26.9218C27.1012 26.8854 27.109 26.8464 27.109 26.807V21.385C27.109 21.3456 27.1012 21.3066 27.0862 21.2702C27.0711 21.2338 27.049 21.2007 27.0211 21.1729C26.9933 21.145 26.9602 21.1229 26.9238 21.1078C26.8874 21.0928 26.8484 21.085 26.809 21.085H17.772Z" fill="white"/>
<path d="M26.809 16.869H17.772C17.2128 16.8685 16.6767 16.6461 16.2813 16.2507C15.8859 15.8553 15.6635 15.3192 15.663 14.76V2.109C15.6635 1.54982 15.8859 1.0137 16.2813 0.618297C16.6767 0.222897 17.2128 0.000529526 17.772 0L26.809 0C27.3678 0.00079361 27.9036 0.223141 28.2987 0.618295C28.6939 1.01345 28.9162 1.54917 28.917 2.108V14.76C28.9165 15.319 28.6942 15.855 28.299 16.2504C27.9039 16.6457 27.368 16.8682 26.809 16.869ZM17.772 1.807C17.6924 1.807 17.6161 1.83861 17.5599 1.89487C17.5036 1.95113 17.472 2.02744 17.472 2.107V14.76C17.472 14.8396 17.5036 14.9159 17.5599 14.9721C17.6161 15.0284 17.6924 15.06 17.772 15.06H26.809C26.8886 15.06 26.9649 15.0284 27.0211 14.9721C27.0774 14.9159 27.109 14.8396 27.109 14.76V2.109C27.109 2.02944 27.0774 1.95313 27.0211 1.89687C26.9649 1.84061 26.8886 1.809 26.809 1.809L17.772 1.807Z" fill="white"/>
</g>
<defs>
<clipPath id="clip0_1_138">
<rect width="28.918" height="28.918" fill="white"/>
</clipPath>
</defs>
</svg>
