<svg width="31" height="24" viewBox="0 0 31 24" fill="none" xmlns="http://www.w3.org/2000/svg">
<g clip-path="url(#clip0_1_143)">
<path d="M22.234 15.302C21.4243 15.302 20.6327 15.5421 19.9595 15.992C19.2862 16.4418 18.7615 17.0812 18.4516 17.8293C18.1418 18.5774 18.0607 19.4005 18.2187 20.1947C18.3766 20.9888 18.7665 21.7183 19.3391 22.2909C19.9116 22.8634 20.6411 23.2534 21.4353 23.4113C22.2294 23.5693 23.0526 23.4882 23.8007 23.1784C24.5488 22.8685 25.1882 22.3437 25.638 21.6705C26.0879 20.9972 26.328 20.2057 26.328 19.396C26.3264 18.3107 25.8946 17.2703 25.1271 16.5029C24.3597 15.7354 23.3193 15.3036 22.234 15.302ZM22.234 21.443C21.8291 21.443 21.4334 21.3229 21.0967 21.098C20.7601 20.8731 20.4977 20.5534 20.3428 20.1793C20.1879 19.8053 20.1473 19.3937 20.2263 18.9966C20.3053 18.5995 20.5003 18.2348 20.7865 17.9485C21.0728 17.6623 21.4376 17.4673 21.8346 17.3883C22.2317 17.3093 22.6433 17.3499 23.0173 17.5048C23.3914 17.6597 23.7111 17.9221 23.936 18.2587C24.1609 18.5954 24.281 18.9911 24.281 19.396C24.2812 19.9392 24.0658 20.4604 23.6819 20.8448C23.2981 21.2292 22.7772 21.4455 22.234 21.446V21.443Z" fill="white" stroke="white" stroke-width="0.1"/>
<path d="M9.96899 15.302C9.15928 15.302 8.36774 15.5421 7.69449 15.992C7.02123 16.4418 6.4965 17.0812 6.18663 17.8293C5.87677 18.5774 5.79569 19.4005 5.95366 20.1947C6.11163 20.9888 6.50155 21.7183 7.0741 22.2909C7.64666 22.8634 8.37614 23.2534 9.1703 23.4113C9.96445 23.5693 10.7876 23.4882 11.5357 23.1784C12.2838 22.8685 12.9232 22.3437 13.373 21.6705C13.8229 20.9972 14.063 20.2057 14.063 19.396C14.0614 18.3107 13.6296 17.2703 12.8621 16.5029C12.0947 15.7354 11.0543 15.3036 9.96899 15.302ZM9.96899 21.443C9.56414 21.443 9.16837 21.3229 8.83174 21.098C8.49511 20.8731 8.23275 20.5534 8.07781 20.1793C7.92288 19.8053 7.88234 19.3937 7.96133 18.9966C8.04031 18.5995 8.23528 18.2348 8.52155 17.9485C8.80783 17.6623 9.17257 17.4673 9.56965 17.3883C9.96673 17.3093 10.3783 17.3499 10.7524 17.5048C11.1264 17.6597 11.4461 17.9221 11.671 18.2587C11.8959 18.5954 12.016 18.9911 12.016 19.396C12.0163 19.9392 11.8008 20.4604 11.4169 20.8448C11.0331 21.2292 10.5122 21.4455 9.96899 21.446V21.443Z" fill="white" stroke="white" stroke-width="0.1"/>
<path d="M24.991 2.66098C24.9057 2.49141 24.775 2.34887 24.6134 2.24928C24.4519 2.14968 24.2658 2.09696 24.076 2.09698H18.686V4.14398H23.445L26.232 9.68698L28.061 8.76698L24.991 2.66098Z" fill="white" stroke="white" stroke-width="0.1"/>
<path d="M19.1 18.409H12.432V20.456H19.1V18.409Z" fill="white" stroke="white" stroke-width="0.1"/>
<path d="M6.742 18.409H3.799C3.55997 18.4534 3.34401 18.5801 3.18859 18.767C3.03316 18.9539 2.94807 19.1894 2.94807 19.4325C2.94807 19.6756 3.03316 19.9111 3.18859 20.098C3.34401 20.285 3.55997 20.4116 3.799 20.456H6.742C6.98103 20.4116 7.19698 20.285 7.35241 20.098C7.50783 19.9111 7.59292 19.6756 7.59292 19.4325C7.59292 19.1894 7.50783 18.9539 7.35241 18.767C7.19698 18.5801 6.98103 18.4534 6.742 18.409Z" fill="white" stroke="white" stroke-width="0.1"/>
<path d="M29.985 11.758L28.135 9.04199C28.0545 8.91712 27.9446 8.81396 27.8148 8.74159C27.6851 8.66922 27.5395 8.62987 27.391 8.62699H20.535V1.12699C20.5512 0.860168 20.4613 0.59776 20.2848 0.396957C20.1084 0.196155 19.8597 0.0732375 19.593 0.0549927H3.892C3.6316 0.0888065 3.3924 0.216249 3.21909 0.413521C3.04578 0.610792 2.9502 0.864402 2.9502 1.12699C2.9502 1.38958 3.04578 1.64319 3.21909 1.84046C3.3924 2.03773 3.6316 2.16518 3.892 2.19899H18.655V9.69899C18.6388 9.96581 18.7287 10.2282 18.9052 10.429C19.0816 10.6298 19.3303 10.7527 19.597 10.771H26.925L28.297 12.782V18.311H25.691C25.4306 18.3448 25.1914 18.4722 25.0181 18.6695C24.8448 18.8668 24.7492 19.1204 24.7492 19.383C24.7492 19.6456 24.8448 19.8992 25.0181 20.0965C25.1914 20.2937 25.4306 20.4212 25.691 20.455H29.24C29.5066 20.4365 29.7551 20.3135 29.9315 20.1128C30.1079 19.912 30.1979 19.6497 30.182 19.383V12.415C30.1833 12.1812 30.1147 11.9524 29.985 11.758Z" fill="white" stroke="white" stroke-width="0.1"/>
<path d="M7.453 12.855H2.745C2.47355 12.855 2.21322 12.9628 2.02127 13.1548C1.82933 13.3467 1.7215 13.607 1.7215 13.8785C1.7215 14.1499 1.82933 14.4103 2.02127 14.6022C2.21322 14.7942 2.47355 14.902 2.745 14.902H7.453C7.72444 14.902 7.98478 14.7942 8.17672 14.6022C8.36866 14.4103 8.47649 14.1499 8.47649 13.8785C8.47649 13.607 8.36866 13.3467 8.17672 13.1548C7.98478 12.9628 7.72444 12.855 7.453 12.855Z" fill="white" stroke="white" stroke-width="0.1"/>
<path d="M9.807 8.64398H1.073C0.80155 8.64398 0.541219 8.75181 0.349276 8.94376C0.157332 9.1357 0.0494995 9.39603 0.0494995 9.66748C0.0494995 9.93893 0.157332 10.1993 0.349276 10.3912C0.541219 10.5831 0.80155 10.691 1.073 10.691H9.807C10.0784 10.691 10.3388 10.5831 10.5307 10.3912C10.7227 10.1993 10.8305 9.93893 10.8305 9.66748C10.8305 9.39603 10.7227 9.1357 10.5307 8.94376C10.3388 8.75181 10.0784 8.64398 9.807 8.64398Z" fill="white" stroke="white" stroke-width="0.1"/>
<path d="M11.479 4.43599H2.745C2.47355 4.43599 2.21322 4.54382 2.02127 4.73576C1.82933 4.92771 1.7215 5.18804 1.7215 5.45949C1.7215 5.73094 1.82933 5.99127 2.02127 6.18321C2.21322 6.37516 2.47355 6.48299 2.745 6.48299H11.479C11.7504 6.48299 12.0108 6.37516 12.2027 6.18321C12.3947 5.99127 12.5025 5.73094 12.5025 5.45949C12.5025 5.18804 12.3947 4.92771 12.2027 4.73576C12.0108 4.54382 11.7504 4.43599 11.479 4.43599Z" fill="white" stroke="white" stroke-width="0.1"/>
</g>
<defs>
<clipPath id="clip0_1_143">
<rect width="30.233" height="23.543" fill="white"/>
</clipPath>
</defs>
</svg>
