<svg width="26" height="29" viewBox="0 0 26 29" fill="none" xmlns="http://www.w3.org/2000/svg">
<g clip-path="url(#clip0_1_190)">
<path d="M21.519 14.882V12.176C21.5167 10.2935 20.9103 8.46146 19.789 6.94936C18.6677 5.43725 17.0907 4.32493 15.29 3.776V2.548C15.29 1.8717 15.0213 1.2231 14.5431 0.744879C14.0649 0.266661 13.4163 -0.0019989 12.74 -0.0019989C12.0637 -0.0019989 11.4151 0.266661 10.9369 0.744879C10.4587 1.2231 10.19 1.8717 10.19 2.548V3.776C8.38913 4.32475 6.81193 5.437 5.69044 6.94912C4.56895 8.46124 3.96239 10.2934 3.96 12.176V14.882C3.96639 18.3392 2.63016 21.6638 0.232998 24.155C0.117981 24.2755 0.0408856 24.427 0.0112875 24.5909C-0.0183106 24.7548 0.000893489 24.9238 0.0665129 25.0769C0.132132 25.23 0.241276 25.3604 0.380388 25.452C0.5195 25.5436 0.682449 25.5922 0.848997 25.592H8.579C8.77499 26.5512 9.29627 27.4132 10.0547 28.0323C10.8131 28.6514 11.762 28.9896 12.741 28.9896C13.72 28.9896 14.6689 28.6514 15.4273 28.0323C16.1857 27.4132 16.707 26.5512 16.903 25.592H24.633C24.7995 25.5922 24.9625 25.5436 25.1016 25.452C25.2407 25.3604 25.3499 25.23 25.4155 25.0769C25.4811 24.9238 25.5003 24.7548 25.4707 24.5909C25.4411 24.427 25.364 24.2755 25.249 24.155C22.8493 21.6649 21.5105 18.3402 21.515 14.882H21.519ZM11.889 2.548C11.889 2.32257 11.9786 2.10637 12.138 1.94696C12.2974 1.78755 12.5136 1.698 12.739 1.698C12.9644 1.698 13.1806 1.78755 13.34 1.94696C13.4994 2.10637 13.589 2.32257 13.589 2.548V3.438C13.309 3.411 13.026 3.397 12.739 3.397C12.452 3.397 12.169 3.411 11.889 3.438V2.548ZM12.742 27.3C12.2155 27.2986 11.7024 27.1345 11.2727 26.8301C10.8431 26.5258 10.518 26.0962 10.342 25.6H15.149C14.9726 26.0973 14.6464 26.5277 14.2154 26.8322C13.7844 27.1366 13.2697 27.3 12.742 27.3ZM2.68 23.9C4.62296 21.2963 5.66928 18.1328 5.662 14.884V12.176C5.662 10.2985 6.40782 8.49796 7.73539 7.17039C9.06296 5.84282 10.8635 5.097 12.741 5.097C14.6185 5.097 16.419 5.84282 17.7466 7.17039C19.0742 8.49796 19.82 10.2985 19.82 12.176V14.882C19.814 18.1321 20.8625 21.2965 22.808 23.9H2.68Z" fill="white"/>
<path d="M23.817 11.942C23.817 12.1629 23.9048 12.3748 24.061 12.531C24.2172 12.6872 24.4291 12.775 24.65 12.775C24.8709 12.775 25.0828 12.6872 25.239 12.531C25.3953 12.3748 25.483 12.1629 25.483 11.942C25.4874 10.3001 25.1661 8.67366 24.5377 7.15679C23.9093 5.63992 22.9862 4.26275 21.822 3.105C21.6654 2.9509 21.4542 2.86495 21.2344 2.86585C21.0147 2.86676 20.8042 2.95445 20.6488 3.10982C20.4934 3.2652 20.4058 3.47568 20.4049 3.69541C20.404 3.91515 20.4899 4.12634 20.644 4.283C21.6531 5.28639 22.4531 6.47997 22.9977 7.79464C23.5424 9.10932 23.8209 10.519 23.817 11.942Z" fill="white"/>
<path d="M0.832998 12.776C1.05392 12.776 1.2658 12.6882 1.42202 12.532C1.57824 12.3758 1.666 12.1639 1.666 11.943C1.66155 10.5199 1.93943 9.10997 2.48357 7.79495C3.0277 6.47993 3.82727 5.28591 4.836 4.282C4.99009 4.12535 5.07605 3.91416 5.07514 3.69442C5.07424 3.47469 4.98655 3.26421 4.83117 3.10883C4.67579 2.95345 4.46531 2.86576 4.24558 2.86486C4.02584 2.86396 3.81465 2.94991 3.658 3.104C2.49408 4.26224 1.57147 5.63985 0.943567 7.15707C0.315668 8.67429 -0.00504368 10.301 -2.51589e-06 11.943C-2.51589e-06 12.1639 0.0877601 12.3758 0.243978 12.532C0.400196 12.6882 0.612072 12.776 0.832998 12.776Z" fill="white"/>
</g>
<defs>
<clipPath id="clip0_1_190">
<rect width="25.489" height="28.99" fill="white"/>
</clipPath>
</defs>
</svg>
