<svg width="31" height="31" viewBox="0 0 31 31" fill="none" xmlns="http://www.w3.org/2000/svg">
<g clip-path="url(#clip0_1_195)">
<path d="M15.143 0.75C12.2963 0.75 9.5136 1.59413 7.14668 3.17566C4.77977 4.75718 2.93498 7.00506 1.84561 9.63504C0.756236 12.265 0.471207 15.159 1.02656 17.9509C1.58192 20.7429 2.95272 23.3075 4.96562 25.3204C6.97852 27.3333 9.5431 28.7041 12.3351 29.2594C15.127 29.8148 18.021 29.5298 20.651 28.4404C23.2809 27.351 25.5288 25.5062 27.1103 23.1393C28.6919 20.7724 29.536 17.9897 29.536 15.143C29.536 11.3257 28.0196 7.66482 25.3204 4.96561C22.6212 2.2664 18.9603 0.75 15.143 0.75ZM18.143 23.057C17.4023 23.349 16.8113 23.5717 16.37 23.725C15.8738 23.887 15.3539 23.9647 14.832 23.955C14.0772 24.0017 13.3317 23.7677 12.739 23.298C12.4985 23.0934 12.3069 22.8376 12.178 22.5493C12.0491 22.2611 11.9862 21.9477 11.994 21.632C11.9946 21.3644 12.013 21.0972 12.049 20.832C12.087 20.559 12.149 20.253 12.228 19.907L13.155 16.632C13.236 16.318 13.308 16.019 13.363 15.741C13.4159 15.4873 13.4437 15.2291 13.446 14.97C13.4629 14.8142 13.4488 14.6566 13.4045 14.5062C13.3603 14.3559 13.2867 14.2158 13.188 14.094C12.8986 13.8948 12.5473 13.8061 12.198 13.844C11.9483 13.8451 11.7001 13.8821 11.461 13.954C11.211 14.03 10.994 14.1 10.816 14.168L11.066 13.159C11.6727 12.909 12.2533 12.6973 12.808 12.524C13.3139 12.3578 13.8425 12.2711 14.375 12.267C15.1184 12.219 15.853 12.4493 16.436 12.913C16.6725 13.1221 16.8599 13.3808 16.9849 13.6707C17.1099 13.9606 17.1693 14.2745 17.159 14.59C17.159 14.7327 17.1423 14.983 17.109 15.341C17.0805 15.676 17.0186 16.0073 16.924 16.33L16.002 19.595C15.927 19.857 15.859 20.157 15.802 20.495C15.7518 20.7462 15.722 21.001 15.713 21.257C15.6936 21.4172 15.7097 21.5797 15.7602 21.733C15.8107 21.8863 15.8942 22.0266 16.005 22.144C16.3062 22.3307 16.6602 22.4139 17.013 22.381C17.2711 22.3755 17.5273 22.3358 17.775 22.263C17.9856 22.2092 18.1918 22.1397 18.392 22.055L18.143 23.057ZM17.977 9.803C17.5579 10.1987 17.0003 10.4142 16.424 10.403C15.8461 10.4132 15.287 10.198 14.865 9.803C14.6588 9.62163 14.494 9.39799 14.3818 9.14727C14.2696 8.89656 14.2128 8.62465 14.215 8.35C14.2135 8.07488 14.2707 7.80261 14.3828 7.55135C14.4949 7.3001 14.6593 7.07565 14.865 6.893C15.2851 6.49437 15.845 6.27673 16.424 6.287C17.0014 6.27572 17.5598 6.49361 17.977 6.893C18.1805 7.07695 18.3432 7.30152 18.4545 7.55222C18.5658 7.80293 18.6233 8.07419 18.6233 8.3485C18.6233 8.62281 18.5658 8.89407 18.4545 9.14478C18.3432 9.39548 18.1805 9.61906 17.977 9.803Z" fill="white" stroke="#051917" stroke-width="1.5"/>
</g>
<defs>
<clipPath id="clip0_1_195">
<rect width="30.286" height="30.286" fill="white"/>
</clipPath>
</defs>
</svg>
