<svg width="29" height="30" viewBox="0 0 29 30" fill="none" xmlns="http://www.w3.org/2000/svg">
<g clip-path="url(#clip0_1_172)">
<path d="M27.227 15.292C27.1679 15.1719 27.1371 15.0398 27.1371 14.906C27.1371 14.7721 27.1679 14.6401 27.227 14.52L28.341 12.246C28.6399 11.6406 28.6905 10.9424 28.4818 10.3002C28.2731 9.65812 27.8217 9.12298 27.224 8.809L24.985 7.622C24.8671 7.56007 24.7649 7.47202 24.6862 7.36457C24.6075 7.25711 24.5544 7.1331 24.531 7.002L24.094 4.502C23.9795 3.83706 23.6099 3.24312 23.0639 2.84674C22.5179 2.45035 21.8387 2.28288 21.171 2.38L18.664 2.735C18.5315 2.75402 18.3964 2.74236 18.2692 2.70092C18.1419 2.65948 18.0259 2.58937 17.93 2.496L16.11 0.734995C15.6266 0.263563 14.9782 -0.000305176 14.303 -0.000305176C13.6278 -0.000305176 12.9794 0.263563 12.496 0.734995L10.676 2.495C10.5801 2.58837 10.4641 2.65848 10.3368 2.69992C10.2096 2.74136 10.0745 2.75302 9.942 2.734L7.435 2.379C6.76717 2.2819 6.08782 2.44951 5.54179 2.8461C4.99576 3.24269 4.62623 3.83688 4.512 4.502L4.074 7.002C4.05128 7.134 3.99852 7.25901 3.9198 7.36738C3.84108 7.47575 3.73851 7.56457 3.62 7.627L1.384 8.809C0.78627 9.12298 0.334909 9.65812 0.126225 10.3002C-0.082459 10.9424 -0.0319407 11.6406 0.267001 12.246L1.379 14.521C1.43811 14.6411 1.46886 14.7731 1.46886 14.907C1.46886 15.0408 1.43811 15.1729 1.379 15.293L0.267001 17.568C-0.0310146 18.1731 -0.0810307 18.8706 0.127605 19.512C0.33624 20.1534 0.787041 20.688 1.384 21.002L3.62 22.189C3.73851 22.2514 3.84108 22.3402 3.9198 22.4486C3.99852 22.557 4.05128 22.682 4.074 22.814L4.511 25.308C4.61395 25.9099 4.92654 26.4559 5.39343 26.8494C5.86033 27.2429 6.4514 27.4585 7.062 27.458C7.18646 27.458 7.31076 27.4494 7.434 27.432L9.941 27.077C10.0735 27.0579 10.2086 27.0695 10.3359 27.111C10.4631 27.1524 10.5792 27.2226 10.675 27.316L12.495 29.076C12.9784 29.5474 13.6268 29.8113 14.302 29.8113C14.9772 29.8113 15.6256 29.5474 16.109 29.076L17.929 27.316C18.0249 27.2227 18.141 27.1526 18.2682 27.1112C18.3955 27.0697 18.5305 27.0581 18.663 27.077L21.17 27.432C21.838 27.5291 22.5175 27.3613 23.0635 26.9645C23.6096 26.5677 23.979 25.9733 24.093 25.308L24.53 22.814C24.5527 22.682 24.6055 22.557 24.6842 22.4486C24.7629 22.3402 24.8655 22.2514 24.984 22.189L27.222 21.002C27.8196 20.6884 28.271 20.1537 28.48 19.512C28.6891 18.8704 28.6392 18.1724 28.341 17.567L27.227 15.292ZM26.416 19.484L24.18 20.672C23.8304 20.8566 23.5278 21.1191 23.2957 21.4392C23.0635 21.7592 22.908 22.1283 22.841 22.518L22.401 25.012C22.3624 25.2371 22.2374 25.4383 22.0527 25.5726C21.8679 25.7069 21.638 25.7637 21.412 25.731L18.905 25.376C18.5133 25.3192 18.1138 25.3532 17.7373 25.4755C17.3609 25.5977 17.0176 25.8049 16.734 26.081L14.914 27.841C14.7504 28.0005 14.531 28.0897 14.3025 28.0897C14.074 28.0897 13.8546 28.0005 13.691 27.841L11.871 26.081C11.3892 25.6121 10.7433 25.3498 10.071 25.35C9.94721 25.35 9.82357 25.3587 9.701 25.376L7.194 25.731C6.96795 25.7637 6.73805 25.7069 6.55331 25.5726C6.36856 25.4383 6.24358 25.2371 6.205 25.012L5.768 22.518C5.70073 22.128 5.54472 21.7588 5.31203 21.4387C5.07934 21.1186 4.77619 20.8563 4.426 20.672L2.19 19.485C1.98779 19.3787 1.8351 19.1976 1.76448 18.9804C1.69387 18.7631 1.71092 18.5269 1.812 18.322L2.924 16.047C3.09885 15.6921 3.18979 15.3017 3.18979 14.906C3.18979 14.5103 3.09885 14.1199 2.924 13.765L1.812 11.49C1.71092 11.2851 1.69387 11.0489 1.76448 10.8316C1.8351 10.6144 1.98779 10.4333 2.19 10.327L4.426 9.13999C4.77631 8.95561 5.07954 8.69314 5.31223 8.37288C5.54493 8.05262 5.70087 7.68314 5.768 7.293L6.205 4.802C6.24358 4.57687 6.36856 4.37571 6.55331 4.2414C6.73805 4.10709 6.96795 4.05025 7.194 4.083L9.701 4.438C10.0927 4.49474 10.4922 4.46067 10.8686 4.33843C11.2451 4.21619 11.5884 4.00904 11.872 3.733L13.692 1.973C13.8556 1.81351 14.075 1.72425 14.3035 1.72425C14.532 1.72425 14.7514 1.81351 14.915 1.973L16.735 3.733C17.0186 4.00904 17.3619 4.21619 17.7384 4.33843C18.1148 4.46067 18.5143 4.49474 18.906 4.438L21.411 4.082C21.6371 4.04925 21.8669 4.10609 22.0517 4.2404C22.2364 4.37471 22.3614 4.57587 22.4 4.801L22.841 7.295C22.9083 7.68496 23.0643 8.05424 23.297 8.37432C23.5297 8.6944 23.8328 8.95671 24.183 9.141L26.419 10.328C26.6212 10.4343 26.7739 10.6154 26.8445 10.8326C26.9151 11.0499 26.8981 11.2861 26.797 11.491L25.685 13.766C25.5101 14.1209 25.4192 14.5113 25.4192 14.907C25.4192 15.3027 25.5101 15.6931 25.685 16.048L26.797 18.323C26.8975 18.5281 26.914 18.7644 26.8428 18.9815C26.7716 19.1985 26.6185 19.3782 26.416 19.484Z" fill="white"/>
<path d="M14.303 7.826C12.9027 7.826 11.5339 8.24124 10.3696 9.0192C9.20526 9.79716 8.29779 10.9029 7.76192 12.1966C7.22605 13.4903 7.08585 14.9139 7.35903 16.2872C7.63221 17.6606 8.30653 18.9222 9.29668 19.9123C10.2868 20.9025 11.5484 21.5768 12.9218 21.85C14.2951 22.1231 15.7187 21.9829 17.0124 21.4471C18.3061 20.9112 19.4118 20.0037 20.1898 18.8394C20.9678 17.6751 21.383 16.3063 21.383 14.906C21.3809 13.0289 20.6343 11.2293 19.307 9.90203C17.9797 8.57473 16.1801 7.82812 14.303 7.826ZM14.303 18.126C13.6665 18.126 13.0442 17.9372 12.515 17.5835C11.9857 17.2299 11.5733 16.7272 11.3298 16.139C11.0863 15.5509 11.0226 14.9038 11.147 14.2795C11.2713 13.6552 11.578 13.0818 12.0282 12.6318C12.4785 12.1819 13.0521 11.8755 13.6764 11.7516C14.3008 11.6277 14.9479 11.6917 15.5359 11.9355C16.1238 12.1794 16.6263 12.5922 16.9796 13.1216C17.333 13.6511 17.5214 14.2735 17.521 14.91C17.5189 15.7625 17.179 16.5793 16.5759 17.1817C15.9727 17.7841 15.1555 18.123 14.303 18.124V18.126Z" fill="black" stroke="white" stroke-width="2.2"/>
</g>
<defs>
<clipPath id="clip0_1_172">
<rect width="28.606" height="29.812" fill="white"/>
</clipPath>
</defs>
</svg>
