<svg width="25" height="31" viewBox="0 0 25 31" fill="none" xmlns="http://www.w3.org/2000/svg">
<g clip-path="url(#clip0_1_201)">
<path d="M12.272 4.609H15.789L14.457 5.943C14.3749 6.02521 14.3098 6.12278 14.2655 6.23014C14.2211 6.3375 14.1983 6.45254 14.1984 6.56871C14.1985 6.68488 14.2215 6.79989 14.266 6.90717C14.3105 7.01446 14.3758 7.11193 14.458 7.194C14.5402 7.27608 14.6378 7.34116 14.7451 7.38553C14.8525 7.4299 14.9675 7.45269 15.0837 7.45259C15.1999 7.4525 15.3149 7.42953 15.4222 7.38499C15.5295 7.34045 15.6269 7.27521 15.709 7.193L18.545 4.351C18.6286 4.26711 18.6945 4.16732 18.7388 4.05753C18.7831 3.94774 18.805 3.83017 18.8032 3.71178C18.8013 3.59339 18.7757 3.47657 18.7279 3.36823C18.6802 3.25989 18.6112 3.16222 18.525 3.081L15.709 0.260003C15.6269 0.177795 15.5295 0.112559 15.4222 0.0680183C15.3149 0.0234777 15.1999 0.00050513 15.0837 0.00041227C14.9675 0.00031941 14.8525 0.0231081 14.7451 0.0674771C14.6378 0.111846 14.5402 0.176927 14.458 0.259003C14.3758 0.341079 14.3105 0.438543 14.266 0.545831C14.2215 0.653119 14.1985 0.76813 14.1984 0.884296C14.1983 1.00046 14.2211 1.11551 14.2655 1.22287C14.3098 1.33023 14.3749 1.4278 14.457 1.51L15.785 2.841H12.234C10.0896 2.84902 7.98485 3.41934 6.12979 4.49505C4.27472 5.57075 2.73425 7.1142 1.66213 8.97133C0.590004 10.8285 0.0237403 12.9343 0.0198565 15.0787C0.0159728 17.2231 0.574605 19.331 1.63999 21.192C1.75693 21.3947 1.94946 21.5427 2.17538 21.6037C2.4013 21.6647 2.64217 21.6336 2.8452 21.5173C3.04823 21.4009 3.19686 21.2088 3.25849 20.9831C3.32012 20.7573 3.28973 20.5164 3.17399 20.313C2.26199 18.718 1.78481 16.9115 1.79021 15.0742C1.79561 13.2369 2.28339 11.4332 3.20475 9.84357C4.12611 8.25396 5.44875 6.93418 7.04034 6.01625C8.63194 5.09832 10.4367 4.61443 12.274 4.613L12.272 4.609Z" fill="white"/>
<path d="M22.853 8.992C22.7363 8.78858 22.5436 8.63984 22.3172 8.57852C22.0909 8.51719 21.8494 8.54829 21.646 8.66499C21.4426 8.78168 21.2938 8.97441 21.2325 9.20077C21.1712 9.42713 21.2023 9.66857 21.319 9.87199C22.2302 11.4649 22.7076 13.2689 22.7036 15.104C22.6995 16.939 22.2143 18.741 21.2962 20.3298C20.378 21.9187 19.0592 23.239 17.4713 24.1589C15.8835 25.0787 14.0821 25.566 12.247 25.572H8.704L10.036 24.238C10.1181 24.1558 10.1832 24.0582 10.2275 23.9509C10.2719 23.8435 10.2947 23.7284 10.2946 23.6123C10.2945 23.4961 10.2715 23.3811 10.227 23.2738C10.1824 23.1665 10.1172 23.0691 10.035 22.987C9.9528 22.9049 9.85522 22.8398 9.74786 22.7955C9.6405 22.7511 9.52546 22.7283 9.40929 22.7284C9.29313 22.7285 9.17812 22.7515 9.07083 22.796C8.96354 22.8406 8.86608 22.9058 8.784 22.988L5.94701 25.829C5.86335 25.913 5.79739 26.0129 5.75304 26.1228C5.70869 26.2327 5.68685 26.3504 5.68881 26.4689C5.69077 26.5874 5.71649 26.7044 5.76444 26.8128C5.8124 26.9212 5.88162 27.0188 5.968 27.1L8.783 29.92C8.94876 30.086 9.17369 30.1794 9.40829 30.1796C9.6429 30.1798 9.86798 30.0868 10.034 29.921C10.2 29.7552 10.2934 29.5303 10.2936 29.2957C10.2938 29.0611 10.2008 28.836 10.035 28.67L8.707 27.339H12.257C14.4021 27.3324 16.508 26.7631 18.3642 25.6878C20.2204 24.6126 21.762 23.069 22.8349 21.2115C23.9078 19.3539 24.4745 17.2473 24.4784 15.1022C24.4823 12.957 23.9232 10.8484 22.857 8.98699L22.853 8.992Z" fill="white"/>
<path d="M11.362 12.439H14.899C15.1336 12.439 15.3586 12.3458 15.5244 12.1799C15.6903 12.0141 15.7835 11.7891 15.7835 11.5545C15.7835 11.3199 15.6903 11.095 15.5244 10.9291C15.3586 10.7632 15.1336 10.67 14.899 10.67H13.13V9.78601C13.13 9.55143 13.0368 9.32644 12.8709 9.16057C12.705 8.99469 12.4801 8.9015 12.2455 8.9015C12.0109 8.9015 11.7859 8.99469 11.6201 9.16057C11.4542 9.32644 11.361 9.55143 11.361 9.78601V10.67C10.6574 10.67 9.98257 10.9495 9.48503 11.4471C8.9875 11.9446 8.70799 12.6194 8.70799 13.323C8.70799 14.0266 8.9875 14.7014 9.48503 15.199C9.98257 15.6965 10.6574 15.976 11.361 15.976H13.129C13.3636 15.976 13.5885 16.0692 13.7544 16.2351C13.9203 16.401 14.0135 16.6259 14.0135 16.8605C14.0135 17.0951 13.9203 17.3201 13.7544 17.4859C13.5885 17.6518 13.3636 17.745 13.129 17.745H9.592C9.35741 17.745 9.13243 17.8382 8.96655 18.0041C8.80068 18.17 8.70749 18.3949 8.70749 18.6295C8.70749 18.8641 8.80068 19.0891 8.96655 19.2549C9.13243 19.4208 9.35741 19.514 9.592 19.514H11.361V20.398C11.361 20.6326 11.4542 20.8576 11.6201 21.0234C11.7859 21.1893 12.0109 21.2825 12.2455 21.2825C12.4801 21.2825 12.705 21.1893 12.8709 21.0234C13.0368 20.8576 13.13 20.6326 13.13 20.398V19.514C13.8336 19.514 14.5084 19.2345 15.0059 18.737C15.5035 18.2394 15.783 17.5646 15.783 16.861C15.783 16.1574 15.5035 15.4826 15.0059 14.985C14.5084 14.4875 13.8336 14.208 13.13 14.208H11.362C11.1274 14.208 10.9024 14.1148 10.7366 13.9489C10.5707 13.7831 10.4775 13.5581 10.4775 13.3235C10.4775 13.0889 10.5707 12.864 10.7366 12.6981C10.9024 12.5322 11.1274 12.439 11.362 12.439Z" fill="white"/>
</g>
<defs>
<clipPath id="clip0_1_201">
<rect width="24.492" height="30.183" fill="white"/>
</clipPath>
</defs>
</svg>
