<svg width="31" height="31" viewBox="0 0 31 31" fill="none" xmlns="http://www.w3.org/2000/svg">
<g clip-path="url(#clip0_1_179)">
<path d="M12.105 13.28C15.5651 13.28 18.37 10.4751 18.37 7.015C18.37 3.55494 15.5651 0.75 12.105 0.75C8.64493 0.75 5.84 3.55494 5.84 7.015C5.84 10.4751 8.64493 13.28 12.105 13.28Z" stroke="white" stroke-width="1.5"/>
<path d="M15.202 26.812C14.8891 26.269 14.7458 25.6447 14.7905 25.0196C14.8352 24.3944 15.0659 23.7969 15.453 23.304C15.0658 22.8111 14.835 22.2136 14.7903 21.5884C14.7456 20.9633 14.8889 20.339 15.202 19.796L16.216 18.042C16.4917 17.5662 16.8875 17.1712 17.3638 16.8964C17.8401 16.6216 18.3801 16.4766 18.93 16.476C19.0813 16.4763 19.2323 16.4873 19.382 16.509C19.4252 16.4066 19.4736 16.3065 19.527 16.209C18.8345 15.9319 18.0959 15.7884 17.35 15.786H6.702C5.124 15.7878 3.61116 16.4155 2.49535 17.5313C1.37953 18.6472 0.751853 20.16 0.75 21.738L0.75 26.123C0.75 26.3723 0.849035 26.6114 1.02532 26.7877C1.2016 26.964 1.4407 27.063 1.69 27.063H15.35L15.202 26.812Z" stroke="white" stroke-width="1.5"/>
<path d="M28.188 23.891C28.2217 23.6966 28.2428 23.5002 28.251 23.303C28.2435 23.106 28.2238 22.9096 28.192 22.715L29.32 21.86C29.4418 21.7678 29.5257 21.6343 29.556 21.4846C29.5862 21.3348 29.5606 21.1792 29.484 21.047L28.47 19.293C28.3937 19.1607 28.2717 19.0608 28.127 19.0122C27.9822 18.9636 27.8247 18.9696 27.684 19.029L26.384 19.577C26.0696 19.3305 25.7248 19.1255 25.358 18.967L25.185 17.589C25.1662 17.4367 25.0921 17.2967 24.977 17.1953C24.8618 17.0939 24.7134 17.0383 24.56 17.039H22.537C22.3836 17.0381 22.2351 17.0934 22.1197 17.1946C22.0043 17.2958 21.9301 17.4357 21.911 17.588L21.737 18.967C21.3703 19.1257 21.0255 19.3307 20.711 19.577L19.411 19.029C19.2703 18.9698 19.1128 18.9639 18.9681 19.0125C18.8234 19.0611 18.7014 19.1609 18.625 19.293L17.611 21.047C17.5347 21.1792 17.5092 21.3348 17.5394 21.4845C17.5696 21.6342 17.6534 21.7677 17.775 21.86L18.903 22.715C18.8706 22.9095 18.8509 23.1059 18.844 23.303C18.8515 23.5 18.8712 23.6964 18.903 23.891L17.775 24.746C17.6532 24.8382 17.5693 24.9717 17.539 25.1214C17.5088 25.2712 17.5344 25.4268 17.611 25.559L18.625 27.313C18.7014 27.4451 18.8234 27.5449 18.9681 27.5935C19.1128 27.6421 19.2703 27.6362 19.411 27.577L20.711 27.028C21.0254 27.2745 21.3702 27.4795 21.737 27.638L21.91 29.016C21.9289 29.1683 22.0031 29.3084 22.1185 29.4097C22.2339 29.5109 22.3825 29.5662 22.536 29.565H24.562C24.7155 29.5662 24.8641 29.5109 24.9795 29.4097C25.0949 29.3084 25.1691 29.1683 25.188 29.016L25.361 27.638C25.7277 27.4793 26.0725 27.2743 26.387 27.028L27.687 27.576C27.8277 27.6352 27.9852 27.6411 28.1299 27.5925C28.2746 27.5439 28.3966 27.4441 28.473 27.312L29.487 25.558C29.5636 25.4258 29.5892 25.2702 29.559 25.1204C29.5288 24.9707 29.4448 24.8372 29.323 24.745L28.188 23.891ZM23.552 25.809C23.0564 25.809 22.5719 25.662 22.1597 25.3867C21.7476 25.1113 21.4264 24.7199 21.2368 24.262C21.0471 23.8041 20.9975 23.3002 21.0942 22.8141C21.1909 22.328 21.4295 21.8815 21.78 21.531C22.1305 21.1805 22.577 20.9418 23.0631 20.8452C23.5492 20.7485 24.0531 20.7981 24.511 20.9878C24.9689 21.1774 25.3603 21.4986 25.6357 21.9107C25.911 22.3228 26.058 22.8074 26.058 23.303C26.0581 23.6322 25.9934 23.9582 25.8675 24.2623C25.7417 24.5665 25.5571 24.8428 25.3244 25.0757C25.0917 25.3085 24.8153 25.4931 24.5112 25.6191C24.2071 25.7451 23.8812 25.809 23.552 25.809Z" stroke="white" stroke-width="1.5"/>
</g>
<defs>
<clipPath id="clip0_1_179">
<rect width="30.377" height="30.317" fill="white"/>
</clipPath>
</defs>
</svg>
